<svg width="31" height="20" viewBox="0 0 31 20" fill="none" xmlns="http://www.w3.org/2000/svg">
<path d="M29.0003 10.5461H26.692C26.3991 10.5464 26.1183 10.6624 25.9113 10.8689C25.7042 11.0753 25.588 11.3551 25.588 11.6469V14.1989H16.1522V11.6469C16.1522 11.3551 16.0359 11.0753 15.8289 10.8689C15.6218 10.6624 15.341 10.5464 15.0482 10.5461H12.7356C12.444 10.5484 12.1652 10.6653 11.9598 10.8715C11.7544 11.0777 11.6392 11.3564 11.6392 11.6469V18.8971C11.6394 19.1874 11.7548 19.4659 11.9601 19.6719C12.1655 19.878 12.4442 19.9948 12.7356 19.997H15.0448C15.3377 19.9968 15.6185 19.8807 15.8255 19.6743C16.0325 19.4679 16.1488 19.188 16.1488 18.8962V16.3467H25.588V18.8971C25.5882 19.1887 25.7046 19.4684 25.9116 19.6746C26.1185 19.8808 26.3992 19.9968 26.692 19.997H29.0003C29.2932 19.9968 29.574 19.8807 29.781 19.6743C29.988 19.4679 30.1043 19.188 30.1043 18.8962V11.6469C30.1043 11.3551 29.988 11.0753 29.781 10.8689C29.574 10.6624 29.2932 10.5464 29.0003 10.5461Z" fill="#FF0000"/>
<path d="M6.85367 13.4745L13.5257 6.82692L15.3356 8.63021C15.5426 8.83644 15.8234 8.95229 16.1162 8.95229C16.4089 8.95229 16.6897 8.83644 16.8967 8.63021L18.5295 7.00339C18.7365 6.79711 18.8528 6.51737 18.8528 6.22569C18.8528 5.93401 18.7365 5.65426 18.5295 5.44799L13.3848 0.322155C13.1777 0.115875 12.8968 0 12.6039 0C12.311 0 12.0301 0.115875 11.8229 0.322155L10.1893 1.9473C9.98222 2.15371 9.86592 2.43359 9.86592 2.72542C9.86592 3.01724 9.98222 3.29712 10.1893 3.50353L11.9992 5.30682L5.32799 11.9536L3.51808 10.1503C3.31091 9.94403 3.03 9.82816 2.73711 9.82816C2.44421 9.82816 2.16331 9.94403 1.95613 10.1503L0.323337 11.7771C0.1163 11.9836 0 12.2634 0 12.5553C0 12.8471 0.1163 13.127 0.323337 13.3334L5.46799 18.4592C5.67502 18.6654 5.95579 18.7813 6.24854 18.7813C6.5413 18.7813 6.82206 18.6654 7.0291 18.4592L8.66189 16.8324C8.86888 16.6261 8.98516 16.3464 8.98516 16.0547C8.98516 15.763 8.86888 15.4833 8.66189 15.277L6.85367 13.4745Z" fill="#FF0000"/>
</svg>
