<svg width="100" height="112" viewBox="0 0 100 112" fill="none" xmlns="http://www.w3.org/2000/svg">
<path d="M50.0007 1.73739e-05C53.4515 0.00186556 56.7949 1.25112 59.4614 3.53498C62.128 5.81884 63.9528 8.99604 64.6249 12.5254C65.297 16.0547 64.775 19.7179 63.1476 22.8909C61.5203 26.0639 58.8884 28.5505 55.7001 29.9271C52.5119 31.3037 48.9646 31.4851 45.6624 30.4406C42.3603 29.396 39.5076 27.19 37.5902 24.1983C35.6728 21.2066 34.8094 17.6143 35.147 14.0334C35.4846 10.4524 37.0024 7.10417 39.4418 4.55911C40.8269 3.11117 42.4727 1.96299 44.2848 1.18058C46.0969 0.398166 48.0394 -0.00304274 50.0007 1.73739e-05Z" fill="#FF0000"/>
<path d="M29.0672 71.7152L29.0482 71.7548C29.0392 71.7724 29.0293 71.7894 29.0184 71.8057C27.1984 75.4824 21.4863 80.9126 16.9107 85.2511C15.2074 86.866 13.656 88.3254 12.5412 89.4934C10.1002 92.053 7.15461 92.2849 4.72169 91.2045C2.86422 90.372 1.38377 88.8283 0.585452 86.8915C-0.453353 84.3461 -0.228234 81.2972 2.22639 78.7377L16.6937 63.652L30.1358 39.3123C33.754 32.7565 43.8139 32.7565 49.7104 32.7565H49.8541C52.5312 32.7565 56.5128 32.7961 60.2883 33.5625C64.2998 34.3799 68.0481 36.0287 69.8654 39.3179L83.3075 63.6689L97.7748 78.7547C100.229 81.3142 100.452 84.3743 99.4157 86.9084C98.6159 88.8475 97.1336 90.393 95.2741 91.2271C92.833 92.3075 89.9092 92.0756 87.4546 89.516C86.3317 88.3452 84.7911 86.8858 83.0878 85.2737C78.4769 80.8985 72.6997 75.4287 70.9313 71.735L70.9015 71.6785L70.8852 71.6389L67.2101 64.9841L66.2255 86.965L83.8879 92.2C87.2267 93.1899 89.5539 96.8298 90.175 100.685C90.4122 102.127 90.3966 103.603 90.1289 105.04C89.8606 106.493 89.2501 107.854 88.3523 109C86.4374 111.387 83.1664 112.702 78.2274 111.613L50.0006 105.391L21.7711 111.613C16.8348 112.702 13.561 111.387 11.6489 109C10.75 107.854 10.1394 106.494 9.87232 105.04C9.60197 103.603 9.58635 102.127 9.82621 100.685C10.4473 96.8185 12.7745 93.1786 16.1133 92.2L33.7757 86.9593L32.7911 64.9784L29.0672 71.7152Z" fill="#FF0000"/>
</svg>
