<svg width="82" height="50" viewBox="0 0 82 50" fill="none" xmlns="http://www.w3.org/2000/svg">
<path d="M66.4684 25.3951C65.8887 25.0191 65.274 24.7004 64.633 24.4433L64.5059 24.3782L62.5943 23.3896L62.4644 23.3216C61.6173 23.2338 61.0865 22.3358 60.1405 22.1177L60.0389 22.0667L59.1014 21.5823L58.9687 21.5115C58.4476 21.2847 57.942 21.0235 57.4552 20.7297L57.314 20.656L56.7832 20.3728L56.8284 20.3954C56.8284 20.3954 56.803 20.3954 56.7973 20.3954C56.7288 20.3593 56.6627 20.3186 56.5997 20.2736L52.3218 18.0584L52.1862 17.9876C51.0568 17.4664 49.7918 16.7469 48.7498 16.2087L48.6228 16.1435L45.1779 14.3703L45.0423 14.2995C44.2461 14.0672 43.5317 13.529 42.8681 13.1664L42.7665 13.1126L40.5075 11.9427L40.0501 12.1778L39.8552 12.2797C39.1089 12.7679 38.3152 13.1788 37.4862 13.5063L37.3817 13.5601L29.193 17.8092L29.0801 17.8687C28.4781 18.3799 27.7686 18.7479 27.0047 18.9451L26.8579 19.0187L23.2097 20.9025L23.0657 20.9733C22.2186 21.4379 21.3093 21.7976 20.5018 22.3018L20.3747 22.367L14.3744 25.4829L17.0004 26.8426L17.1049 26.8965C17.904 27.1939 18.6353 27.9077 19.4994 28.1287L19.6349 28.1967L22.9866 29.9331L23.1278 30.0153L23.3 30.1116C23.8168 30.6045 24.7119 30.7858 25.398 31.1823L25.5336 31.2532L27.8716 32.4627C27.9196 32.4854 27.9647 32.5109 28.0099 32.5364C29.0151 33.3012 30.2689 33.6694 31.2656 34.219L31.3983 34.287L33.1857 35.2133C33.2897 35.1659 33.3962 35.1243 33.5048 35.0886C33.5641 35.0804 33.6244 35.0914 33.677 35.1198C33.6996 35.1198 33.725 35.1934 33.7137 35.2076C33.7025 35.2218 33.6206 35.3096 33.5726 35.3096C33.5246 35.3096 33.4455 35.3096 33.3862 35.3096L38.4011 37.9157L38.5846 38.0091C38.6576 38.1161 38.7559 38.2031 38.8708 38.2624C38.9856 38.3218 39.1133 38.3515 39.2425 38.3491L39.3865 38.4255L40.4962 38.9921L45.5393 36.3803L45.6664 36.3152C46.4436 35.8336 47.2564 35.4122 48.0976 35.0546C48.1456 35.0291 48.1936 35.0036 48.2444 34.981L51.39 33.3663C51.438 33.3408 51.486 33.3154 51.5368 33.2927C52.2133 32.8233 52.9468 32.4426 53.7195 32.1596L53.8663 32.0831L56.0462 30.9501L56.1902 30.8764C57.1587 30.239 58.4125 30.0606 59.3866 29.2249L59.5137 29.157L60.454 28.6697L60.5669 28.6131C61.2813 28.2618 61.9985 28.0834 62.6 27.5593L62.7327 27.4913L66.6378 25.4744L66.5983 25.4546L66.4684 25.3951ZM19.313 23.3556C19.2876 23.3358 19.2396 23.3074 19.2424 23.3018C19.2796 23.2364 19.3201 23.1731 19.3638 23.112L19.4203 23.2253L19.313 23.3556ZM20.8462 22.9817C20.7722 22.9266 20.7049 22.8629 20.6458 22.7919C20.6458 22.7721 20.7079 22.7012 20.7418 22.6531L20.9535 22.8542C20.9112 22.9109 20.8942 22.9448 20.8519 22.9817H20.8462ZM22.6958 27.1939C22.6562 27.1939 22.6195 27.1429 22.58 27.1146L22.7353 26.9928C22.7663 27.0466 22.8115 27.0891 22.8087 27.1287C22.8059 27.1684 22.7325 27.1939 22.6958 27.1939ZM23.5626 23.4746C23.4896 23.5247 23.4097 23.5638 23.3254 23.5907C22.9668 23.5907 22.9047 23.5227 23.0092 23.3074C23.079 23.1619 23.1747 23.0304 23.2916 22.9194C23.444 22.7721 23.3706 22.9194 23.3763 22.9788C23.3866 23.0761 23.4103 23.1714 23.4469 23.2621C23.4864 23.3329 23.5852 23.4604 23.5626 23.4802V23.4746ZM25.5392 23.3018C25.5194 23.3018 25.4799 23.2621 25.4827 23.2564C25.5052 23.2177 25.5307 23.1807 25.559 23.146C25.5828 23.1622 25.6055 23.1802 25.6267 23.1998C25.6098 23.2423 25.5759 23.2734 25.5477 23.3074L25.5392 23.3018ZM27.4565 26.871C27.4254 26.871 27.352 26.7775 27.2955 26.7237C27.3755 26.6637 27.4584 26.608 27.544 26.5565C27.544 26.5565 27.6203 26.6274 27.6908 26.6953C27.6033 26.7775 27.544 26.854 27.4649 26.8766L27.4565 26.871ZM27.7388 23.857C27.6654 23.8145 27.5779 23.755 27.5581 23.687C27.5384 23.619 27.64 23.5709 27.6852 23.5114L27.9111 23.7465C27.8461 23.7947 27.7699 23.874 27.7501 23.8626L27.7388 23.857ZM32.9965 17.4551L33.0699 17.5854C33.0276 17.6033 32.9829 17.6148 32.9372 17.6194C32.9175 17.6194 32.8779 17.5627 32.8836 17.5542C32.9208 17.5179 32.9626 17.4864 33.0078 17.4607L32.9965 17.4551ZM29.3794 18.0443C29.4101 18.0492 29.4404 18.0567 29.4698 18.0669L29.4161 18.1406C29.3926 18.124 29.3708 18.105 29.3512 18.0839C29.3512 18.0839 29.3822 18.0499 29.3907 18.0499L29.3794 18.0443ZM28.7638 18.6561L28.6622 18.5003C28.6951 18.4796 28.7301 18.4625 28.7667 18.4494C28.8053 18.4976 28.8403 18.5487 28.8711 18.6023L28.7638 18.6561ZM29.162 31.1682C29.162 31.1682 29.1083 31.1427 29.0801 31.1285C29.1041 31.0876 29.1315 31.0487 29.162 31.0124C29.162 31.0124 29.2156 31.035 29.2552 31.052C29.2311 31.0947 29.2037 31.1355 29.1733 31.1738L29.162 31.1682ZM29.7267 30.2702C29.5065 30.2277 29.289 30.1994 29.0801 30.1399C29.018 30.1229 28.9615 30.0209 28.9474 29.9473C28.9532 29.9154 28.9672 29.8855 28.988 29.8607C29.0088 29.8359 29.0357 29.8169 29.066 29.8056C29.1953 29.7594 29.3335 29.7441 29.4698 29.7608C29.6061 29.7775 29.7366 29.8258 29.851 29.902C29.9508 29.9974 30.0451 30.0986 30.1333 30.2051L29.7267 30.2702ZM29.8481 24.432L29.6081 24.2762C29.6759 24.2337 29.7521 24.1459 29.8142 24.1544C29.9339 24.1826 30.0496 24.2254 30.1587 24.2819L29.8481 24.432ZM30.9183 22.2452C30.9183 22.2055 30.9183 22.1574 30.9409 22.112C30.9889 22.1857 31.0341 22.2622 31.0849 22.3443C31.0567 22.3896 31.0369 22.4236 31.0143 22.4548C30.9807 22.3895 30.9533 22.3213 30.9324 22.2508L30.9183 22.2452ZM31.4463 28.1938C31.404 28.2426 31.3545 28.2847 31.2995 28.3185C31.2656 28.2732 31.1922 28.208 31.2063 28.1825C31.2204 28.157 31.308 28.106 31.387 28.0579C31.4294 28.1372 31.4746 28.191 31.4605 28.2108L31.4463 28.1938ZM31.1329 23.8371C31.1329 23.8371 31.0793 23.8088 31.051 23.7918L31.4322 23.3499L31.5678 23.4831C31.4322 23.6247 31.291 23.7408 31.147 23.8541L31.1329 23.8371ZM33.0445 19.9734C32.9331 19.8848 32.8266 19.7903 32.7255 19.6901C32.7721 19.6807 32.82 19.6807 32.8666 19.6901C32.9994 19.7467 33.1208 19.8176 33.2478 19.8827C33.2478 19.9139 33.2281 19.945 33.2168 19.9762C33.1716 19.979 33.0897 20.013 33.0587 19.9903L33.0445 19.9734ZM33.2563 27.565C33.2111 27.565 33.1518 27.4942 33.0982 27.4545C33.1575 27.4007 33.2083 27.327 33.2817 27.3015C33.3551 27.276 33.3947 27.3582 33.5104 27.4177C33.4088 27.5055 33.3438 27.5706 33.2704 27.582L33.2563 27.565ZM37.1332 14.0955L37.1869 14.1777C37.1869 14.206 37.1671 14.2371 37.1586 14.2655C37.1332 14.2485 37.088 14.2286 37.088 14.2116C37.1035 14.1762 37.1234 14.1429 37.1473 14.1125L37.1332 14.0955ZM35.6621 21.9194L35.6875 21.9987L35.6169 22.0497L35.5378 21.9562L35.6621 21.9194ZM34.3519 29.3921C34.3191 29.3859 34.2893 29.369 34.2672 29.3439C34.2672 29.3297 34.2672 29.2986 34.2672 29.2759L34.4084 29.3326C34.4055 29.3779 34.383 29.4119 34.366 29.4091L34.3519 29.3921ZM35.7637 30.2079C35.7637 30.2079 35.7073 30.2815 35.6847 30.2759C35.5265 30.2305 35.3741 30.1682 35.2188 30.1116C35.2894 30.0294 35.3515 29.8878 35.4362 29.8765C35.6564 29.8595 35.8061 29.9473 35.7779 30.2249L35.7637 30.2079ZM35.6819 29.1853C35.5491 29.0182 35.4475 28.936 35.4249 28.8397C35.4023 28.7434 35.5265 28.7009 35.5858 28.6329C35.6593 28.6867 35.7891 28.7349 35.7976 28.7972C35.8061 28.8595 35.7581 29.0125 35.696 29.2023L35.6819 29.1853ZM36.1393 26.9191C36.0743 26.8455 36.0094 26.769 35.9501 26.6925C35.9501 26.6925 35.9868 26.6528 36.0094 26.633L36.2127 26.8596L36.1393 26.9191ZM36.7718 33.5221C36.7516 33.4794 36.7356 33.4348 36.7238 33.389C36.7411 33.3817 36.7591 33.376 36.7774 33.372C36.8 33.4145 36.8226 33.457 36.8452 33.5051C36.8311 33.5165 36.7859 33.5306 36.7859 33.5278L36.7718 33.5221ZM36.8706 31.018C36.9158 30.9189 36.9694 30.8226 37.0203 30.7348L37.1615 30.8481L36.9299 31.0889C36.9214 31.0634 36.8791 31.035 36.8847 31.0237L36.8706 31.018ZM37.105 37.0772C37.0515 37.0392 37.0023 36.9955 36.9582 36.9469C36.9774 36.9143 37.0001 36.8839 37.0259 36.8562L37.1953 37.0488C37.1784 37.0658 37.1332 37.1083 37.1191 37.0828L37.105 37.0772ZM37.105 25.7266C37.0165 25.6872 36.9323 25.6388 36.8537 25.5821C36.9158 25.5368 36.9864 25.449 37.04 25.4575C37.0937 25.466 37.1897 25.5453 37.3224 25.6331C37.232 25.6926 37.1699 25.7464 37.1332 25.7322L37.105 25.7266ZM38.0396 30.8254C38.0396 30.8566 37.9973 30.8962 37.9718 30.9302L37.8194 30.7829L37.9606 30.6979C38.017 30.7546 38.0622 30.7943 38.0679 30.8396L38.0396 30.8254ZM37.8617 20.5201C37.8843 20.5201 37.9013 20.5597 37.921 20.5824L37.8646 20.6504L37.7827 20.5625C37.8363 20.5625 37.8674 20.5314 37.89 20.5342L37.8617 20.5201ZM37.8617 35.4031C37.8165 35.4031 37.7629 35.3464 37.7149 35.3124C37.7544 35.2671 37.7827 35.2019 37.8335 35.1849C37.8843 35.1679 37.9408 35.2161 38.0481 35.2529C37.9916 35.3436 37.9493 35.4087 37.8984 35.4087L37.8617 35.4031ZM38.1441 34.9215C38.0624 34.8359 37.9913 34.7408 37.9323 34.6382C37.9182 34.6099 38.0199 34.5079 38.0283 34.5108C38.1304 34.5584 38.2294 34.6123 38.3248 34.6722L38.1441 34.9215ZM38.6778 32.8989C38.6425 32.8724 38.6103 32.842 38.5818 32.8083C38.5818 32.8083 38.6298 32.7431 38.6354 32.746C38.6753 32.7685 38.7139 32.7931 38.7512 32.8196L38.6778 32.8989ZM39.3752 34.5504C39.3402 34.596 39.3004 34.6378 39.2566 34.6751L39.2143 34.5589L39.3583 34.4598C39.3922 34.5051 39.4176 34.5589 39.4035 34.5589L39.3752 34.5504ZM39.7479 30.5195C39.6758 30.5057 39.605 30.4858 39.5362 30.46L39.779 30.3552C39.7979 30.3887 39.8112 30.425 39.8185 30.4628C39.8468 30.4997 39.8129 30.5336 39.7762 30.5336L39.7479 30.5195ZM39.7479 20.8458C39.7479 20.826 39.6999 20.7948 39.7084 20.7835C39.734 20.744 39.7654 20.7087 39.8016 20.6787C39.8016 20.6787 39.8468 20.6787 39.892 20.707L39.7479 20.8458ZM44.3534 24.5963C44.3731 24.5623 44.4268 24.5425 44.4635 24.5142C44.4764 24.542 44.4849 24.5716 44.4889 24.602C44.4792 24.6524 44.4621 24.7011 44.4381 24.7464C44.4098 24.8116 44.3731 24.8767 44.3392 24.9391C44.3392 24.8767 44.3392 24.8116 44.3392 24.7748C44.3495 24.7178 44.3676 24.6625 44.3929 24.6105L44.3534 24.5963ZM42.8342 16.9764C42.8818 16.9755 42.9293 16.9812 42.9754 16.9934C42.95 17.033 42.9331 17.0783 42.9161 17.0783C42.8671 17.0734 42.8188 17.0629 42.7721 17.0472C42.7919 17.0217 42.8088 16.9792 42.8342 16.9764ZM42.4728 21.0753C42.5536 21.1683 42.6255 21.2689 42.6874 21.3755C42.7043 21.4095 42.6422 21.4718 42.6168 21.52C42.5157 21.4547 42.4212 21.3797 42.3344 21.2962C42.3316 21.2792 42.405 21.1942 42.4728 21.0753ZM40.996 14.2966C40.9734 14.2626 40.9169 14.2116 40.9282 14.1946C40.9612 14.1397 41.0093 14.0955 41.0666 14.0672C41.1005 14.0502 41.1626 14.087 41.2388 14.1068L40.996 14.2966ZM41.6003 15.9084C41.5777 15.8716 41.5297 15.8234 41.541 15.7951C41.5524 15.7724 41.5687 15.7525 41.5888 15.7368C41.6088 15.7211 41.632 15.7101 41.6567 15.7045C41.685 15.7045 41.7273 15.7555 41.8008 15.8093L41.6003 15.9084ZM42.3542 25.6444C42.3028 25.606 42.2563 25.5612 42.2158 25.5113C42.2158 25.4943 42.2554 25.4433 42.3147 25.3555C42.348 25.4232 42.3763 25.4932 42.3994 25.5651C42.4078 25.5878 42.3768 25.6189 42.3542 25.6444ZM42.5773 24.7663C42.5585 24.7245 42.5443 24.6808 42.5349 24.636C42.5349 24.636 42.5773 24.6048 42.5999 24.5906C42.6247 24.6286 42.6446 24.6695 42.6592 24.7125C42.6592 24.7125 42.6196 24.7436 42.5829 24.7663H42.5773ZM42.6704 23.7267C42.7323 23.6564 42.8047 23.5962 42.8851 23.5482C42.9189 23.5482 43.0036 23.6247 43.1166 23.704C43.0212 23.7631 42.9188 23.8098 42.8116 23.8428C42.7777 23.8485 42.7241 23.7663 42.6761 23.7267H42.6704ZM43.3058 33.9669C43.2041 33.9952 43.0996 34.0179 42.998 34.0434C42.998 34.015 42.998 33.964 42.998 33.9612C43.1133 33.9148 43.2311 33.8751 43.351 33.8422C43.3679 33.8422 43.399 33.8762 43.4357 33.9074C43.3958 33.9303 43.3543 33.9502 43.3114 33.9669H43.3058ZM44.0399 32.1936C44.0399 32.1653 43.9948 32.1256 44.0061 32.1115C44.0667 32.035 44.1327 31.9631 44.2037 31.8962L44.3308 31.9897L44.0399 32.1936ZM44.3223 29.6272C44.2745 29.6855 44.2172 29.7353 44.1529 29.7745C44.1552 29.7034 44.1666 29.633 44.1868 29.5649C44.2331 29.4779 44.286 29.3945 44.3449 29.3156C44.3449 29.3411 44.3844 29.3694 44.3816 29.3921C44.378 29.4728 44.3608 29.5522 44.3308 29.6272H44.3223ZM44.4889 26.5622C44.4708 26.5283 44.4575 26.4921 44.4494 26.4546C44.4494 26.4546 44.4945 26.4234 44.52 26.4092C44.5454 26.3951 44.5397 26.4631 44.551 26.4886L44.4889 26.5622ZM44.7233 14.883C44.7628 14.8575 44.8023 14.8178 44.8447 14.815C44.9023 14.8208 44.9586 14.8362 45.0113 14.8603L44.8419 15.0076L44.7233 14.883ZM45.0649 24.1544C45.0339 24.1544 44.9943 24.1063 44.9605 24.0808C45.0085 24.0468 45.048 23.9958 45.1016 23.9816C45.1553 23.9675 45.1863 24.0241 45.2654 24.0666C45.2086 24.1024 45.148 24.1319 45.0847 24.1544H45.0649ZM45.8273 24.5623C45.7744 24.5338 45.7266 24.4964 45.6861 24.4518C45.7285 24.4179 45.7708 24.3555 45.8132 24.3555C45.9107 24.3694 46.0058 24.397 46.0956 24.4377C45.9205 24.5283 45.8697 24.5737 45.8471 24.5623H45.8273ZM46.0871 16.0189C46.0643 15.9877 46.0462 15.9534 46.0335 15.9169C46.0335 15.9169 46.0871 15.8914 46.1153 15.8773C46.1295 15.9056 46.1549 15.9339 46.152 15.9566C46.1492 15.9792 46.1295 15.9991 46.1069 16.0189H46.0871ZM46.4259 27.1401L46.1775 27.0013C46.3102 26.9616 46.4401 26.9135 46.5728 26.8823C46.6038 26.8823 46.6462 26.9248 46.6857 26.9503L46.4259 27.1401ZM46.9766 15.6195C47.0387 15.7016 47.0895 15.7413 47.1008 15.7923C47.1121 15.8433 47.0556 15.8659 47.0302 15.9028C46.9826 15.868 46.9406 15.8259 46.906 15.7781C46.9116 15.7555 46.9568 15.7045 46.9963 15.6195H46.9766ZM46.9173 35.3011C46.913 35.2549 46.913 35.2084 46.9173 35.1623C46.9173 35.1453 46.9935 35.1254 46.9963 35.1311C47.024 35.1736 47.0486 35.2181 47.0697 35.2642L46.9173 35.3011ZM47.081 17.1123C47.0641 17.0897 47.0274 17.0557 47.033 17.0443C47.0605 17.0097 47.0917 16.9784 47.1262 16.9509L47.177 17.0415L47.081 17.1123ZM47.5356 19.6929C47.4989 19.6731 47.482 19.6221 47.4594 19.5853C47.508 19.5767 47.5577 19.5767 47.6062 19.5853C47.6429 19.5853 47.6655 19.6476 47.7277 19.7156C47.6695 19.7154 47.6116 19.7078 47.5554 19.6929H47.5356ZM48.1907 34.4853C48.171 34.5277 48.0834 34.5476 48.027 34.5759C48.0202 34.5337 48.0202 34.4907 48.027 34.4484C48.0578 34.3596 48.0955 34.2735 48.1399 34.1907C48.1879 34.3691 48.2303 34.4371 48.2105 34.4853H48.1907ZM48.1597 22.8514C48.1394 22.8127 48.1269 22.7703 48.123 22.7267C48.1317 22.6661 48.1459 22.6064 48.1653 22.5483L48.2755 22.6276L48.1597 22.8514ZM48.0609 21.8118C48.01 21.7891 47.9818 21.724 47.9451 21.6786C47.9903 21.6616 48.0411 21.6276 48.0834 21.6333C48.1679 21.6641 48.2492 21.703 48.3263 21.7495C48.171 21.7749 48.1032 21.8118 48.0609 21.8118ZM48.6849 28.5649C48.7092 28.5069 48.7416 28.4525 48.7809 28.4035C48.8176 28.429 48.8854 28.4544 48.8882 28.4828C48.8794 28.5495 48.8604 28.6145 48.8317 28.6754C48.7527 28.6102 48.6792 28.5678 48.6849 28.5508V28.5649ZM48.7837 32.9443C48.7527 32.8678 48.7131 32.8225 48.7244 32.7885C48.734 32.7674 48.7485 32.7489 48.7667 32.7346C48.7848 32.7203 48.8062 32.7106 48.8289 32.7063C48.8684 32.7063 48.9164 32.7063 48.9616 32.729L48.7837 32.9443ZM50.4469 24.602C50.4817 24.575 50.5196 24.5522 50.5598 24.534C50.5598 24.534 50.5965 24.5708 50.6247 24.602C50.5866 24.6263 50.5459 24.6463 50.5033 24.6615C50.5033 24.6615 50.4666 24.6076 50.4469 24.5878V24.602ZM50.7292 30.6979C50.6718 30.6856 50.6172 30.6625 50.5683 30.63C50.605 30.5988 50.636 30.5535 50.6812 30.5421C50.7264 30.5308 50.7688 30.562 50.8365 30.5818C50.7998 30.6215 50.7688 30.6838 50.7405 30.6838L50.7292 30.6979ZM51.294 27.6613C51.2657 27.4687 51.3617 27.378 51.4944 27.4205L51.7909 27.4658L51.4126 27.8058C51.39 27.7434 51.3024 27.7009 51.2968 27.6471L51.294 27.6613ZM51.6017 29.2476C51.556 29.1845 51.518 29.116 51.4888 29.0436C51.4888 29.0436 51.5622 29.0012 51.5989 28.9813C51.6356 29.0465 51.6752 29.1145 51.7232 29.2051C51.6846 29.2181 51.6449 29.2276 51.6046 29.2334L51.6017 29.2476ZM51.9604 31.9585C51.8995 31.8824 51.843 31.803 51.7909 31.7205C51.7909 31.7205 51.87 31.6356 51.8869 31.6441C51.9802 31.6922 52.0699 31.7471 52.1552 31.8084L51.9604 31.9585ZM52.8018 18.8119C52.7457 18.7758 52.6919 18.736 52.6409 18.693C52.6747 18.6703 52.7256 18.6193 52.7397 18.6278C52.7991 18.6628 52.8549 18.7036 52.9063 18.7496C52.8442 18.7808 52.8018 18.8176 52.8018 18.8119ZM53.5755 26.5905C53.4993 26.5367 53.4287 26.4744 53.3552 26.4149L53.44 26.3469L53.6546 26.5537C53.615 26.5679 53.5755 26.599 53.5642 26.5905H53.5755ZM54.3859 30.2164C54.2974 30.194 54.2128 30.1587 54.1346 30.1116C54.0894 30.0889 54.0612 30.0408 54.0245 30.0039L54.2419 29.868C54.3278 29.9439 54.4098 30.0243 54.4875 30.1087C54.4875 30.1087 54.3972 30.222 54.3746 30.2164H54.3859ZM55.2979 23.2678C55.2313 23.2427 55.17 23.2052 55.1172 23.1573C55.1596 23.1176 55.1963 23.0497 55.2471 23.0412C55.2979 23.0327 55.3601 23.0808 55.4561 23.1205C55.3713 23.1941 55.3205 23.2763 55.2866 23.2678H55.2979ZM57.362 29.8991C57.362 29.8991 57.3197 29.834 57.3225 29.8311L57.4468 29.7688L57.4919 29.8566C57.4469 29.8767 57.3994 29.891 57.3507 29.8991H57.362ZM57.6444 24.6756C57.6218 24.6756 57.5851 24.653 57.5541 24.6416C57.5905 24.5989 57.6345 24.5634 57.6839 24.5368C57.7206 24.5368 57.7771 24.5368 57.8816 24.5737C57.806 24.6133 57.7277 24.6474 57.6472 24.6756H57.6444ZM58.4915 27.7038C58.3462 27.5976 58.2144 27.4739 58.099 27.3355C58.099 27.3355 58.1527 27.2534 58.1894 27.1967C58.3342 27.2578 58.4756 27.3268 58.6129 27.4035C58.6725 27.457 58.7239 27.5191 58.7654 27.5876C58.6609 27.6301 58.5198 27.7293 58.4802 27.7038H58.4915ZM59.0421 26.2563C59.0026 26.2563 58.9602 26.2223 58.9179 26.2053C58.9426 26.1527 58.975 26.104 59.0139 26.0608C59.0308 26.0608 59.0958 26.0835 59.141 26.0976L59.237 26.2109C59.1694 26.2307 59.1005 26.2459 59.0308 26.2563H59.0421ZM60.3241 28.0975C60.3084 28.0717 60.2988 28.0426 60.2958 28.0125C60.3047 27.983 60.3202 27.9559 60.341 27.9332L60.406 28.0097L60.3241 28.0975ZM62.6847 27.1117L62.5971 27.0381L62.6734 26.9814C62.696 27.0013 62.7355 27.0211 62.7383 27.0438C62.7411 27.0664 62.7016 27.0891 62.6847 27.1117ZM55.5944 33.3437L55.4165 33.4372L55.5944 33.3437ZM43.9778 11.5886L44.1557 11.682L43.9778 11.5886ZM32.7226 35.5815L32.9739 35.709L32.7226 35.5815ZM68.8657 24.4603L68.7499 24.4009C68.0892 24.313 67.7306 23.9533 67.1884 23.5907L67.0444 23.5171L65.6326 22.7862L65.4942 22.7154C64.5031 22.1489 63.2494 21.9761 62.3289 21.0781L62.151 20.9875C61.1599 20.4776 60.149 19.9705 59.2144 19.4635L59.0675 19.387L56.8481 18.2539L56.6957 18.1774C55.7565 17.837 54.866 17.3741 54.047 16.8007C53.9962 16.7781 53.9482 16.7526 53.9002 16.7271L50.5429 14.9736L50.4017 14.9C48.3065 13.8519 46.2452 12.767 44.167 11.682C44.1416 11.7019 44.1246 11.7189 44.1049 11.7217C44.0315 11.7217 43.9355 11.6339 43.879 11.5291L42.2384 10.6793L42.0888 10.6L40.5103 9.78414L39.8044 10.1496L39.7028 10.2005C38.8059 10.7308 37.8802 11.2103 36.9299 11.6367L36.8311 11.6877L34.5721 12.8548L34.462 12.9114C32.9655 13.3505 32.0675 14.2513 30.8844 14.7669L30.7602 14.8292L30.5089 14.9595L30.3762 15.0275C30.2858 15.0954 30.1954 15.1606 30.0938 15.2229C30.0938 15.2512 30.1136 15.2796 30.0938 15.2994C30.074 15.3192 30.0486 15.3419 30.0232 15.3646C30.0232 15.3334 30.0006 15.2994 30.0091 15.2739C29.4758 15.6264 28.8973 15.9046 28.2895 16.1011L28.1793 16.1464L22.6195 19.0386L22.4219 19.1377C21.4872 19.6391 20.4142 19.9875 19.5615 20.622L19.4514 20.6759L16.3764 22.2707L16.2606 22.3302C15.5773 22.6956 14.6822 23.0553 13.9508 23.5256L13.7616 23.6247C13.0698 23.7748 12.5333 24.313 11.7851 24.6473L11.6693 24.7068L10.1869 25.4744L10.9944 25.8937L11.1017 25.9475C12.7112 26.8313 14.3236 27.548 15.9585 28.4629L16.0771 28.5253L17.2884 29.1513L17.4014 29.2108C18.4461 29.7065 19.5191 30.2447 20.6542 30.8934L20.7785 30.9585L24.0003 32.6242L24.1923 32.7233C24.901 32.9414 25.4375 33.4797 26.1209 33.7204L26.3129 33.8196L26.8776 34.1198L27.0103 34.1878C27.5751 34.7544 28.473 34.7544 28.9869 35.2133L29.1196 35.2812L29.4246 35.4399L29.5375 35.4937C30.2604 35.9979 31.1555 36.1764 31.7965 36.6721L31.9405 36.7458L34.0498 37.8363L34.1486 37.8902C35.0917 38.1536 35.6282 38.8731 36.5148 39.1139L36.6419 39.179L40.4849 41.1619L41.5127 40.6294L41.6313 40.5671C42.0803 40.4821 42.4389 40.1223 42.7862 39.9694L42.9528 39.8815L46.4316 38.0828C46.3917 38.0726 46.3536 38.0564 46.3186 38.0346C46.1153 37.9185 46.1323 37.8052 46.3554 37.7004C46.5784 37.5956 46.7535 37.4171 46.9511 37.7259C46.9511 37.7485 46.9794 37.7712 46.9907 37.7938L46.6688 37.9581L47.0387 37.7655L47.1516 37.7089C47.6345 37.2471 48.5296 37.2471 49.0068 36.7486L49.1282 36.6863L52.254 35.066L52.4432 34.9696C53.1886 34.7317 53.9059 34.1907 54.5553 33.8762L54.7501 33.7743L55.2443 33.5193C55.3149 33.3777 55.3996 33.236 55.4786 33.1057C55.5238 33.1709 55.6283 33.2615 55.6085 33.3012C55.5999 33.3201 55.5895 33.3381 55.5775 33.355L57.074 32.5817L57.2689 32.4825C58.3842 32.2219 58.9235 31.5024 59.8102 31.1653L60.0022 31.0662L61.1317 30.4798L61.2587 30.4147C61.9703 29.885 62.8654 29.7065 63.5572 29.2249L63.673 29.1655L70.7999 25.4829L68.8657 24.4603ZM59.6153 20.1886C59.7015 20.2371 59.7845 20.291 59.8638 20.3501C59.8017 20.3954 59.7565 20.4351 59.7509 20.4294C59.6577 20.3614 59.5673 20.2849 59.4685 20.2113C59.525 20.2028 59.5786 20.1716 59.6153 20.1886ZM52.6973 16.8999L52.8526 17.0188C52.8187 17.0358 52.7651 17.0783 52.751 17.0698C52.6973 17.03 52.6472 16.9854 52.6013 16.9367L52.6973 16.8999ZM51.2516 15.9311L51.4747 16.1011C51.3928 16.1719 51.3363 16.2229 51.277 16.271C51.2256 16.2155 51.1845 16.1513 51.1556 16.0812C51.1471 16.0359 51.2177 15.9821 51.2516 15.9311ZM34.2164 13.4525C34.2446 13.4525 34.2728 13.478 34.3039 13.495C34.287 13.5176 34.27 13.5601 34.2502 13.5601C34.2305 13.5601 34.1938 13.5346 34.1655 13.5205C34.1825 13.495 34.1994 13.4525 34.2164 13.4525ZM25.5053 18.0896C25.5536 18.1025 25.6001 18.1216 25.6437 18.1463L25.542 18.2539C25.5103 18.2267 25.4835 18.1941 25.463 18.1576C25.4545 18.1293 25.494 18.0868 25.5053 18.0896ZM18.1101 21.6985C18.1299 21.6985 18.192 21.7636 18.2711 21.8316C18.182 21.8906 18.0874 21.9409 17.9887 21.9817C17.9717 21.9817 17.8757 21.8599 17.8842 21.8514C17.9497 21.7872 18.0263 21.7354 18.1101 21.6985ZM14.4902 23.3613C14.5156 23.3613 14.5494 23.4151 14.5946 23.4576C14.5491 23.4883 14.4984 23.5104 14.445 23.5227C14.4224 23.5227 14.3687 23.4519 14.3772 23.4377C14.39 23.4181 14.4066 23.4012 14.426 23.388C14.4454 23.3749 14.4672 23.3658 14.4902 23.3613ZM13.6685 23.6445H13.6882C13.7391 23.7493 13.7814 23.7975 13.7701 23.8287C13.7298 23.916 13.6816 23.9994 13.6261 24.0779C13.5894 24.0496 13.5188 24.0156 13.5245 23.9986C13.5649 23.8795 13.613 23.7631 13.6685 23.6502V23.6445ZM14.9645 27.2619C14.8619 27.2146 14.762 27.1617 14.6652 27.1032C14.7047 27.0608 14.7725 26.9729 14.7866 26.9786C14.8996 27.0371 15.009 27.1024 15.1142 27.1741C15.0266 27.2222 14.9645 27.2704 14.9645 27.2619ZM27.8998 34.4258L27.7501 34.3323C27.8377 34.2756 27.9224 34.2133 28.0156 34.1652C28.0325 34.1652 28.089 34.2105 28.1257 34.2331L27.8998 34.4258ZM37.1643 39.4368L36.9186 39.3093C37.0231 39.2952 37.1304 39.2952 37.2377 39.2867C37.2377 39.2867 37.2546 39.3348 37.2546 39.3377L37.1643 39.4368ZM38.5761 39.2102C38.5508 39.2664 38.5164 39.3181 38.4745 39.3632C38.4403 39.2945 38.4138 39.2223 38.3954 39.1479C38.3954 39.1224 38.4519 39.0884 38.5253 39.0176C38.5451 39.1111 38.5789 39.1649 38.5676 39.2102H38.5761ZM39.2058 40.315C39.1756 40.2875 39.1482 40.2571 39.1239 40.2243C39.1493 40.2073 39.1832 40.1761 39.1973 40.1818C39.2344 40.2016 39.2686 40.2264 39.299 40.2555C39.2668 40.278 39.2328 40.2979 39.1973 40.315H39.2058ZM40.9706 40.1365L40.8689 40.0345C40.9273 39.9817 40.9918 39.936 41.061 39.8985C41.0779 39.8985 41.1428 39.9807 41.1852 40.026L40.9706 40.1365ZM62.7807 28.0749L62.6423 28.1457C62.1708 28.6272 61.2757 28.6272 60.8182 29.0918L60.7081 29.1485L59.7565 29.6413L59.6266 29.7093C58.5875 30.0662 57.8703 30.7858 56.7521 31.1965L56.6109 31.2701L54.0499 32.5958L53.9172 32.6638C53.2 33.1198 52.4441 33.5113 51.6582 33.8337L51.5255 33.9017L48.5663 35.4229L48.4449 35.4852C47.6373 35.9979 46.7507 36.3577 45.9261 36.7911L45.8217 36.8449L43.5006 38.046C43.5229 38.0598 43.5398 38.0807 43.5486 38.1054C43.5486 38.1423 43.5119 38.1848 43.4837 38.2414L43.3566 38.1196L42.4559 38.587L42.2977 38.6692C41.733 39.0544 41.0073 39.0544 40.6346 39.519L40.5527 39.5615L40.4877 39.5954L40.3635 39.5303L40.0811 39.3802L39.9541 39.315C39.4035 38.8618 38.6862 38.6833 38.0622 38.3406L37.9634 38.2839L36.9892 37.7967L36.865 37.7315C36.1703 37.2556 35.4531 37.0772 34.8093 36.6664L34.6597 36.59L32.9655 35.709C32.9655 35.709 32.7706 35.7543 32.7565 35.7288C32.7106 35.6647 32.6691 35.5975 32.6323 35.5277L32.7142 35.5702L32.621 35.5192C32.573 35.4937 32.5222 35.471 32.4742 35.4427C31.692 35.0886 30.9776 34.5476 30.2576 34.2813L30.1107 34.2162C29.8679 34.1057 29.6251 34.0094 29.385 33.9102L29.2072 33.8337C28.9795 33.8229 28.7579 33.7569 28.5613 33.6415C28.3646 33.5261 28.1987 33.3646 28.0777 33.1709L27.9337 33.0916L25.2766 31.7262L25.1354 31.6526C24.534 30.9642 23.6389 31.324 23.1024 30.6243L22.9245 30.5138L22.7861 30.4345C21.5268 29.7858 20.321 29.1598 19.2113 28.5848L19.0843 28.5224C18.2626 28.4488 17.904 27.3695 17.0371 27.4602L16.9411 27.4063L13.3522 25.5509L13.2703 25.5084C13.067 25.2252 13.6035 25.5708 13.5866 25.2762L13.6882 25.2252L20.2843 21.8118L20.4142 21.7438C20.9507 21.2452 21.8458 21.0781 22.4501 20.6787L22.5913 20.605L26.9313 18.3587L27.064 18.2907C27.4 18.0075 28.1172 18.0075 28.5041 17.5457L28.6396 17.4749L33.9792 14.73L34.1062 14.6649C34.2914 14.6238 34.4627 14.5349 34.6032 14.4071L34.7246 14.3448L37.1812 13.0729L37.3083 13.0049C38.1554 12.8208 38.6891 11.9228 39.5672 11.8407L39.7141 11.7642L40.499 11.3308L40.6233 11.3959L42.9472 12.5998L43.0488 12.6508C43.8959 13.1579 44.6018 13.6961 45.4292 13.883L45.5647 13.9539L45.9487 14.155L45.8019 14.0785C45.7598 14.0424 45.7211 14.0026 45.6861 13.9595C45.672 13.9425 45.8019 13.7896 45.8217 13.7981C45.9494 13.8558 46.0722 13.924 46.1888 14.002C46.1097 14.0757 46.0391 14.1465 45.9996 14.1805L48.9701 15.7186L49.0971 15.7838C50.3367 16.3928 51.4126 17.2908 52.6691 17.6335L52.8075 17.7044L57.2858 20.0215L57.4298 20.098C57.6327 20.1617 57.8286 20.2462 58.0143 20.3501C57.9546 20.2689 57.899 20.1848 57.8477 20.098C57.8477 20.098 57.9776 20.0017 57.9917 20.013C58.0704 20.0633 58.1354 20.1324 58.1809 20.2141C58.1979 20.2538 58.164 20.3133 58.1244 20.4096C58.5308 20.6795 58.9576 20.9172 59.4007 21.1206L59.5419 21.1914L60.0615 21.4747L60.1631 21.5285C60.9086 21.9789 61.9844 22.3387 62.7779 22.8797L62.9106 22.9505L64.6048 23.8343L64.746 23.9051C65.3728 24.1374 65.9121 24.6756 66.6181 24.8767L66.7959 24.9674L67.7814 25.4773L62.7807 28.0749Z" fill="white"/>
<path d="M32.1043 25.6444C32.1116 26.3373 31.9959 27.026 31.7626 27.6783C31.573 28.2389 31.2525 28.7458 30.828 29.157C30.6597 29.3291 30.4589 29.4659 30.2373 29.5592C30.0158 29.6526 29.7779 29.7007 29.5375 29.7007C29.2972 29.7007 29.0593 29.6526 28.8377 29.5592C28.6161 29.4659 28.4154 29.3291 28.2471 29.157C27.8216 28.7466 27.501 28.2394 27.3125 27.6783C27.0782 27.0262 26.9616 26.3375 26.968 25.6444C26.9313 24.64 27.1748 23.6452 27.6711 22.7721C28.1426 21.9987 28.761 21.6135 29.5319 21.6135C30.3027 21.6135 30.9211 21.9987 31.3927 22.7721C31.8919 23.6443 32.1384 24.6392 32.1043 25.6444ZM27.7219 27.5565C27.5493 26.9341 27.4647 26.2904 27.4706 25.6444C27.464 24.997 27.5506 24.3521 27.7276 23.7295C27.86 23.2264 28.0957 22.7566 28.4194 22.35V22.3047C28.0113 22.6838 27.7037 23.1589 27.5243 23.687C27.2942 24.3135 27.1803 24.9768 27.1882 25.6444C27.1805 26.3075 27.2914 26.9667 27.5158 27.5905C27.6958 28.1178 28.0011 28.5932 28.4052 28.9757V28.9275C28.0841 28.5236 27.8513 28.0565 27.7219 27.5565ZM30.3536 25.5991C30.3777 24.7108 30.319 23.8222 30.1785 22.9448C30.0627 22.3783 29.8481 22.095 29.5375 22.095C29.2269 22.095 29.0152 22.3783 28.8966 22.9448C28.7551 23.8212 28.6955 24.7088 28.7187 25.5963C28.6929 26.5031 28.7649 27.4101 28.9333 28.3015C29.0744 28.9077 29.2749 29.2136 29.5375 29.2136C29.8001 29.2136 29.9978 28.9077 30.1418 28.3015C30.307 27.4107 30.378 26.5049 30.3536 25.5991ZM30.8364 27.4148C31.0171 26.2415 31.0171 25.0473 30.8364 23.874C30.7649 23.371 30.6429 22.8765 30.4722 22.3981L30.4496 22.4208C30.7508 24.5602 30.7508 26.7314 30.4496 28.8709L30.4722 28.8935C30.6425 28.4141 30.7646 27.9187 30.8364 27.4148Z" fill="#1D1D1B" stroke="black" stroke-width="0.43" stroke-miterlimit="10"/>
<path d="M34.9308 23.636V27.6783C34.9308 28.5281 35.0748 28.9417 35.3628 28.9417C35.583 28.9417 35.823 28.7604 36.0856 28.4035C36.2664 28.126 36.4125 27.8273 36.5205 27.514C36.6915 27.0444 36.8339 26.5648 36.9469 26.0778H37.0796V29.4431H32.4855V28.9417H32.9598C33.0869 28.9417 33.1914 28.8425 33.2704 28.6414C33.3627 28.3292 33.4018 28.0036 33.3862 27.6783V23.636C33.3919 23.3292 33.35 23.0234 33.262 22.7296C33.1773 22.4775 33.0784 22.35 32.9598 22.35H32.4855V21.8486H36.0207V22.35H35.3628C35.2442 22.35 35.1425 22.4775 35.0578 22.7296C34.9673 23.0229 34.9244 23.329 34.9308 23.636ZM33.9114 28.9417V22.35H33.6545V28.9417H33.9114Z" fill="#1D1D1B" stroke="black" stroke-width="0.43" stroke-miterlimit="10"/>
<path d="M39.875 23.636V27.6783C39.8593 28.0019 39.8995 28.3258 39.9936 28.6357C40.0727 28.8397 40.1771 28.9417 40.3042 28.9417H40.7842V29.4431H37.4212V28.9417H37.9041C38.0311 28.9417 38.1356 28.8397 38.2147 28.6357C38.3088 28.3258 38.349 28.0019 38.3333 27.6783V23.636C38.3396 23.329 38.2967 23.0229 38.2062 22.7296C38.1215 22.4775 38.0227 22.35 37.9041 22.35H37.4212V21.8486H40.7842V22.35H40.3042C40.1856 22.35 40.0868 22.4775 40.0021 22.7296C39.9116 23.0229 39.8687 23.329 39.875 23.636ZM38.8557 28.9417V22.35H38.5987V28.9417H38.8557Z" fill="#1D1D1B" stroke="black" stroke-width="0.43" stroke-miterlimit="10"/>
<path d="M48.3093 22.35H47.6486C47.5797 22.3533 47.5133 22.3769 47.4576 22.4176C47.4019 22.4584 47.3593 22.5147 47.3352 22.5794C47.2421 22.8062 47.2015 23.0513 47.2166 23.2961V27.6783C47.2009 28.0019 47.241 28.3258 47.3352 28.6357C47.4142 28.8397 47.5187 28.9417 47.6486 28.9417H48.3093V29.4431H44.7713V28.9417H45.2456C45.3755 28.9417 45.4772 28.8397 45.5562 28.6357C45.6504 28.3258 45.6905 28.0019 45.6748 27.6783V22.9109L44.4663 28.4488H44.2602L42.7354 24.6445V26.2081C42.7306 26.6341 42.7704 27.0595 42.854 27.4772C42.9091 27.7755 43.0131 28.0627 43.1618 28.327C43.4159 28.7321 43.687 28.936 43.9806 28.936V29.4374H41.2247V28.936C41.5071 28.936 41.7895 28.7321 42.0436 28.327C42.1944 28.0634 42.2994 27.7761 42.3542 27.4772C42.4378 27.0595 42.4776 26.6341 42.4728 26.2081V24.9787C42.4794 24.5101 42.4157 24.0431 42.2836 23.5935C42.1939 23.2518 42.031 22.9338 41.8064 22.6616C41.7306 22.5677 41.6358 22.4911 41.5282 22.4369C41.4206 22.3826 41.3027 22.3521 41.1824 22.3472V21.8486H43.7406L44.952 24.8966L45.6155 21.8486H48.3093V22.35ZM44.3985 27.4772V26.7407L42.662 22.3783H42.2667L44.2997 27.4772H44.3985ZM45.9403 22.35V28.9417H46.1972V22.35H45.9403Z" fill="#1D1D1B" stroke="black" stroke-width="0.43" stroke-miterlimit="10"/>
<path d="M48.7272 21.8486H52.7143C53.6404 21.8486 54.1044 22.553 54.1063 23.9618C54.1063 25.4046 53.695 26.125 52.8724 26.1231H51.39C51.3165 26.1231 51.2601 26.1855 51.2262 26.3129C51.1824 26.5118 51.1644 26.7156 51.1725 26.9191V27.6783C51.1577 28.0017 51.1968 28.3253 51.2883 28.6357C51.3674 28.8397 51.469 28.9417 51.5989 28.9417H52.0818V29.4431H48.7272V28.9417H49.2044C49.3343 28.9417 49.4388 28.8397 49.5179 28.6357C49.612 28.3258 49.6521 28.0019 49.6365 27.6783V23.636C49.6428 23.329 49.5999 23.0229 49.5094 22.7296C49.4247 22.4775 49.323 22.35 49.2044 22.35H48.7272V21.8486ZM50.1617 28.9303V22.35H49.9019V28.9417L50.1617 28.9303ZM51.39 25.5991H51.7909C51.9999 25.5991 52.1778 25.3725 52.3189 24.9221C52.4771 24.3003 52.4771 23.6487 52.3189 23.027C52.1778 22.5766 51.9999 22.35 51.7909 22.35H51.39C51.3363 22.35 51.2883 22.4095 51.2516 22.5256C51.2093 22.6612 51.1893 22.8028 51.1923 22.9449V25.0156C51.1897 25.1539 51.2097 25.2917 51.2516 25.4235C51.2798 25.5396 51.3278 25.5991 51.39 25.5991ZM52.8978 24.9277C53.0484 24.3013 53.0484 23.6478 52.8978 23.0213C52.8599 22.7954 52.7689 22.5818 52.6324 22.3981L52.6126 22.4321C52.706 22.9412 52.7476 23.4585 52.7368 23.976C52.7476 24.4925 52.7059 25.0088 52.6126 25.5169L52.6324 25.5509C52.7689 25.3673 52.8599 25.1537 52.8978 24.9277Z" fill="#1D1D1B" stroke="black" stroke-width="0.43" stroke-miterlimit="10"/>
<path d="M58.1668 27.1316C58.1476 27.1316 58.1288 27.1257 58.1131 27.1146L57.1503 26.4347L56.1902 27.1146C56.1754 27.1253 56.1576 27.1312 56.1394 27.1316C56.1201 27.132 56.1013 27.126 56.0857 27.1146C56.0705 27.1036 56.0591 27.0882 56.0531 27.0704C56.047 27.0527 56.0466 27.0334 56.0518 27.0154L56.3992 25.8824L56.2495 25.7719C55.826 25.5226 55.4673 25.3441 55.4673 25.1629C55.6481 24.8031 56.1846 25.1629 56.5008 24.9957H56.6872L57.0684 23.8796C57.0746 23.8619 57.086 23.8465 57.1011 23.8354C57.1163 23.8242 57.1344 23.818 57.1531 23.8173C57.172 23.8171 57.1905 23.8231 57.2058 23.8343C57.2211 23.8456 57.2323 23.8615 57.2378 23.8796L57.602 24.9957L58.7795 25.0156C58.798 25.0161 58.8159 25.0223 58.8307 25.0334C58.8456 25.0445 58.8567 25.0599 58.8625 25.0775C58.8684 25.0951 58.8687 25.1141 58.8635 25.1319C58.8582 25.1497 58.8476 25.1654 58.8332 25.177L57.8844 25.8852L58.2317 27.0183C58.237 27.0363 58.2366 27.0555 58.2305 27.0733C58.2244 27.091 58.213 27.1064 58.1978 27.1174C58.1886 27.1242 58.178 27.129 58.1668 27.1316Z" fill="#1D1D1B"/>
<path d="M24.8276 27.1316C24.8084 27.1316 24.7897 27.1257 24.774 27.1146L23.8111 26.4347L22.8482 27.1146C22.8334 27.1253 22.8157 27.1312 22.7974 27.1316C22.7782 27.132 22.7593 27.126 22.7438 27.1146C22.7286 27.1036 22.7172 27.0882 22.7111 27.0704C22.705 27.0527 22.7046 27.0334 22.7099 27.0154L23.0572 25.8824L22.9075 25.7775C22.484 25.5283 22.1254 25.3498 22.1254 25.1685C22.3061 24.8088 22.8426 25.1685 23.1588 25.0014H23.3452L23.7179 23.8796C23.7242 23.8619 23.7356 23.8465 23.7507 23.8354C23.7658 23.8242 23.7839 23.818 23.8026 23.8173C23.8216 23.8171 23.8401 23.8231 23.8554 23.8343C23.8706 23.8456 23.8819 23.8615 23.8874 23.8796L24.2827 24.9957L25.4601 25.0155C25.4786 25.0161 25.4965 25.0223 25.5114 25.0334C25.5262 25.0445 25.5373 25.0599 25.5432 25.0775C25.549 25.0951 25.5493 25.1141 25.5441 25.1319C25.5388 25.1497 25.5283 25.1654 25.5138 25.177L24.565 25.8852L24.9124 27.0183C24.9176 27.0363 24.9172 27.0555 24.9111 27.0733C24.9051 27.091 24.8937 27.1064 24.8785 27.1174C24.8635 27.1274 24.8457 27.1324 24.8276 27.1316Z" fill="#1D1D1B"/>
<path d="M61.0272 44.2666L61.1288 44.2156L61.5298 44.0088L61.3462 43.955L61.1655 43.9011C60.55 43.5471 59.8328 43.5471 59.3019 43.2695L59.1184 43.2043C58.5788 42.9951 58.0501 42.7587 57.5343 42.4961C57.5512 42.448 57.571 42.3998 57.5908 42.3545C57.7235 42.0231 57.8731 41.6888 58.0284 41.3574C58.0595 41.2951 58.0906 41.2299 58.1188 41.1676C58.579 40.4906 58.4012 39.5926 59.0591 39.0771L59.1268 38.8873C59.1946 38.6984 59.2539 38.5096 59.3047 38.3207C58.9885 38.485 58.6722 38.6465 58.3503 38.8023L58.1583 38.8958C57.4713 39.271 56.7545 39.5884 56.0152 39.8447L55.8147 39.9269C55.1539 40.1913 54.4866 40.4377 53.8127 40.6662L53.6009 40.737C53.077 41.0242 52.5008 41.2025 51.9067 41.2611L51.6949 41.3177L51.2685 41.4339L51.0568 41.4905C50.3367 41.5727 49.8002 41.9324 49.1254 41.9438L48.9108 41.9891L48.6934 42.0316L48.4759 42.0741C47.4707 42.1109 46.3949 42.6406 45.3981 42.55L45.1779 42.5754C44.4833 42.6529 43.7877 42.7124 43.0912 42.7539L42.8822 42.7681C42.0944 42.8304 41.5579 42.8304 40.7871 42.8332H39.7282C39.1634 42.6859 38.4462 42.9097 37.8081 42.8332C37.7911 42.9097 37.7403 43.0032 37.6951 43.1448C37.5624 42.9777 37.4579 42.8955 37.4382 42.7992C37.4382 42.7822 37.4382 42.7652 37.4551 42.7454H37.4354L37.2292 42.7312C36.6645 42.6888 36.1139 42.6321 35.5604 42.5669L35.3487 42.5415C34.6926 42.48 34.0416 42.373 33.4003 42.2214L33.3128 42.2865C33.2902 42.2553 33.2507 42.2185 33.2309 42.1874C32.9509 42.1329 32.6681 42.0942 32.3838 42.0712L32.1692 42.0287C31.9602 41.9891 31.7513 41.9438 31.5423 41.8984L31.3249 41.8503C30.2576 41.9551 29.1817 41.2356 28.1313 41.0005L27.9196 40.9325C27.7106 40.8683 27.5017 40.8003 27.2927 40.7285L27.0866 40.6577C26.135 40.3376 25.2399 39.9779 24.2629 39.57L24.1528 39.5218C23.7857 39.3632 23.4243 39.1989 23.0628 39.0289L22.8652 38.9326C22.5574 38.7201 22.1988 38.7201 22.0774 38.5445L21.8825 38.4454L21.6877 38.3434L21.7301 38.4935C21.7301 38.5445 21.7583 38.5955 21.7752 38.6437C21.8402 39.2584 22.3795 39.6181 22.419 40.1988C22.4473 40.264 22.4727 40.3263 22.5009 40.3886C22.6872 40.925 22.9305 41.4398 23.2266 41.9239L23.3113 42.1165C23.3539 42.1116 23.3968 42.1207 23.4338 42.1424C23.4708 42.1641 23.4997 42.1972 23.5163 42.2368C23.5328 42.2765 23.5361 42.3204 23.5256 42.3621C23.5151 42.4037 23.4915 42.4408 23.4581 42.4678C22.9015 42.8093 22.3011 43.0733 21.6736 43.2525L21.4985 43.3261C21.267 43.4196 21.0354 43.5046 20.8095 43.5754L20.6316 43.6405L20.4481 43.7029C20.2335 43.7255 20.0556 43.7255 20.0697 43.8275L19.8721 43.8898L19.4683 44.0088L19.649 44.1023L19.8325 44.1957C20.5921 44.445 21.3093 44.9861 22.0294 45.2438L22.2129 45.326L22.7776 45.5639L22.9697 45.6433C24.0116 46.0625 24.9067 46.4222 25.9204 46.7423L26.1209 46.8075C26.3835 46.8953 26.6489 46.9775 26.9115 47.0568L27.1176 47.1191C28.1313 47.5015 29.3766 47.5015 30.3987 47.9689L30.6133 48.0114C31.099 48.1134 31.5847 48.2078 32.0704 48.2947L32.2821 48.3315C34.2248 48.408 36.3736 48.949 38.3135 48.9575H38.5338C39.1889 48.9802 39.8477 48.9915 40.5103 48.9915C41.0751 48.9915 41.6342 48.983 42.1876 48.966H42.3966C43.526 49.1246 44.4352 48.7649 45.5026 48.7592L45.7087 48.7394C46.1888 48.6912 46.666 48.6346 47.1403 48.5723L47.3493 48.5439C48.3827 48.2267 49.2779 48.2267 50.2718 48.0426L50.4779 47.9972C51.2375 47.8386 51.9914 47.6573 52.7369 47.4562L52.943 47.3995C53.7506 47.3287 54.2871 46.969 55.0184 46.7763L55.2245 46.7055C55.9775 46.4525 56.7305 46.1768 57.4835 45.8784L57.6868 45.7962C58.4068 45.7084 58.9461 44.9917 59.7198 44.9124L59.8243 44.8643L60.3297 44.6235L60.4314 44.5753C60.55 44.445 60.9086 44.445 61.0272 44.2666ZM24.6949 41.1251C24.6526 41.1251 24.6159 41.0741 24.5792 41.0458L24.7316 40.924C24.7655 40.9778 24.8079 41.0203 24.805 41.06C24.8022 41.0996 24.7316 41.1279 24.6949 41.1251ZM31.1696 45.0909C31.1696 45.0909 31.116 45.0654 31.0877 45.0512C31.1127 45.0102 31.1411 44.9714 31.1724 44.9351C31.1724 44.9351 31.2261 44.9577 31.2656 44.9747C31.2371 45.0189 31.205 45.0606 31.1696 45.0994V45.0909ZM31.7343 44.1929C31.5141 44.1504 31.2939 44.1221 31.0849 44.0626C31.0228 44.0456 30.9663 43.9436 30.955 43.87C30.9437 43.7963 31.0228 43.7369 31.0736 43.7284C31.2028 43.6815 31.3412 43.6658 31.4776 43.6825C31.6139 43.6992 31.7445 43.7479 31.8586 43.8247C31.9585 43.9201 32.0527 44.0213 32.141 44.1278L31.7343 44.1929ZM36.3624 43.3403C36.3298 43.3336 36.3001 43.3167 36.2776 43.2921C36.2776 43.278 36.2776 43.2468 36.2946 43.2241L36.4358 43.2808C36.4047 43.3034 36.3793 43.3403 36.3624 43.3403ZM37.7742 44.1561C37.7742 44.1561 37.7177 44.2297 37.6923 44.2241C37.5342 44.1788 37.3817 44.1164 37.2264 44.0598C37.2998 43.9776 37.3591 43.836 37.4438 43.8247C37.6528 43.785 37.8053 43.8728 37.777 44.1504L37.7742 44.1561ZM38.7794 47.459C38.7606 47.417 38.7455 47.3734 38.7342 47.3287C38.7499 47.3192 38.7671 47.3125 38.7851 47.3089C38.8105 47.3514 38.8302 47.3939 38.8557 47.442C38.8274 47.442 38.7851 47.4562 38.7822 47.4534L38.7794 47.459ZM38.9375 45.0144C38.9178 44.9946 38.8726 44.9662 38.8783 44.9549C38.9234 44.8558 38.9771 44.7595 39.0279 44.6716L39.1719 44.785L38.9375 45.0144ZM39.9823 44.6433C40.0105 44.6858 40.0585 44.7255 40.0642 44.7708C40.0698 44.8161 40.019 44.8416 39.9936 44.8756L39.8411 44.7283L39.9823 44.6433ZM40.1687 48.8669C40.0873 48.7804 40.0154 48.6854 39.9541 48.5836C39.9541 48.5553 40.0416 48.4533 40.0501 48.4561C40.1528 48.5043 40.2527 48.5582 40.3494 48.6176L40.1687 48.8669ZM40.6995 46.8443C40.6651 46.8178 40.6338 46.7874 40.6063 46.7537C40.6063 46.7537 40.6543 46.6885 40.6572 46.6914C40.6978 46.7126 40.7365 46.7372 40.7729 46.765L40.6995 46.8443ZM41.3998 48.4958C41.3637 48.5414 41.323 48.5832 41.2784 48.6204C41.2784 48.5893 41.2586 48.5609 41.2388 48.5043L41.38 48.4051C41.3913 48.4391 41.4139 48.4703 41.4026 48.4901L41.3998 48.4958ZM41.7895 44.4734C41.7163 44.4601 41.6445 44.4401 41.5749 44.4139L41.8205 44.3091C41.8399 44.3421 41.8524 44.3787 41.8572 44.4167C41.8431 44.4252 41.7895 44.4734 41.7895 44.4734ZM45.3219 47.9066C45.2202 47.9349 45.1158 47.9576 45.0141 47.9831C45.0141 47.9547 45.0141 47.9038 45.0141 47.9009C45.1291 47.8537 45.247 47.8139 45.3671 47.7819C45.3812 47.7819 45.4122 47.8159 45.4518 47.8471C45.4052 47.8665 45.357 47.8816 45.3078 47.8924L45.3219 47.9066ZM46.056 46.1333C46.056 46.105 46.0137 46.0653 46.025 46.0512C46.0846 45.9748 46.1497 45.9028 46.2198 45.8359C46.2638 45.8647 46.3063 45.8959 46.3469 45.9294L46.056 46.1333ZM46.3553 43.5669C46.3058 43.6246 46.2477 43.6743 46.1831 43.7142C46.1864 43.643 46.1987 43.5726 46.2198 43.5046C46.2661 43.4176 46.319 43.3342 46.3779 43.2553C46.3779 43.2808 46.4146 43.3091 46.4118 43.3318C46.4017 43.4091 46.3777 43.4839 46.3412 43.5527L46.3553 43.5669ZM50.6953 42.4905C50.7196 42.4318 50.753 42.3773 50.7942 42.329C50.8309 42.3545 50.8958 42.38 50.8986 42.4083C50.8914 42.4754 50.8723 42.5406 50.8422 42.6009C50.749 42.5301 50.6756 42.4905 50.6812 42.4905H50.6953ZM50.797 46.8698C50.7631 46.7933 50.7264 46.748 50.7349 46.714C50.7451 46.6929 50.7601 46.6744 50.7788 46.6601C50.7974 46.6458 50.8191 46.6362 50.8422 46.6319C50.8789 46.6319 50.9269 46.646 50.9721 46.6545L50.797 46.8698ZM52.751 44.6235C52.6944 44.6111 52.6408 44.5881 52.5928 44.5555C52.6296 44.5243 52.6606 44.479 52.703 44.4677C52.7453 44.4564 52.7905 44.4875 52.8583 44.5073C52.8018 44.547 52.7651 44.6093 52.7369 44.6093L52.751 44.6235ZM53.3157 41.5868C53.2903 41.3942 53.3835 41.3036 53.5162 41.3461L53.8155 41.3914L53.4371 41.7313C53.3665 41.669 53.3016 41.6407 53.2931 41.5727L53.3157 41.5868ZM53.6235 43.1731C53.5797 43.1093 53.5427 43.0409 53.5134 42.9692C53.5134 42.9692 53.584 42.9267 53.6235 42.9069L53.7477 43.1307C53.6998 43.1449 53.6507 43.1544 53.6009 43.159L53.6235 43.1731ZM53.9821 45.884C53.9213 45.8079 53.8647 45.7285 53.8127 45.6461C53.8127 45.6461 53.8946 45.5611 53.9087 45.5696C54.002 45.6177 54.0916 45.6727 54.1769 45.7339L53.9821 45.884ZM55.5859 40.5302C55.5097 40.4764 55.4363 40.4141 55.3657 40.3546L55.4504 40.2866L55.6622 40.4934C55.6255 40.5076 55.5718 40.5246 55.5634 40.5076L55.5859 40.5302ZM56.1507 44.0513C56.108 44.0222 56.0707 43.9857 56.0406 43.9436L56.2552 43.8077C56.3418 43.8829 56.4238 43.9633 56.5008 44.0484C56.5008 44.0484 56.4246 44.1618 56.3992 44.1561C56.3008 44.1328 56.2071 44.0925 56.1224 44.0371L56.1507 44.0513ZM56.642 46.1022C56.5714 46.0568 56.5008 46.0143 56.4331 45.9634C56.4331 45.9634 56.45 45.9152 56.5234 45.7254C56.594 45.8784 56.6335 45.952 56.6618 46.0313C56.642 46.0342 56.6222 46.0625 56.6138 46.088L56.642 46.1022ZM59.3781 43.836C59.3781 43.836 59.333 43.7708 59.3358 43.7708C59.3767 43.7463 59.4191 43.7246 59.4629 43.7057L59.5052 43.7935C59.4552 43.8112 59.4029 43.8217 59.3499 43.8247L59.3781 43.836Z" fill="white"/>
<path d="M28.0184 42.8332L27.3689 44.8643C27.1844 44.8538 27.0056 44.7962 26.8494 44.6971L27.352 43.1335L26.7873 42.9494L26.2847 44.5102C26.0997 44.502 25.9203 44.4443 25.7651 44.343L26.4145 42.3148L26.9369 42.482L28.0184 42.8332Z" fill="#1D1D1B"/>
<path d="M28.3911 45.2042C27.8857 45.0654 27.7078 44.7226 27.8574 44.1844C27.9027 43.9621 28.0323 43.766 28.2189 43.6377C28.3123 43.5854 28.4156 43.5534 28.5221 43.5436C28.6286 43.5339 28.736 43.5466 28.8373 43.5811C29.3399 43.7208 29.5178 44.0607 29.3709 44.6008C29.3227 44.8219 29.1925 45.0163 29.0067 45.1447C28.914 45.1974 28.8113 45.2299 28.7052 45.2401C28.5992 45.2504 28.4921 45.2381 28.3911 45.2042ZM28.521 44.734C28.5542 44.7468 28.5902 44.7507 28.6254 44.7453C28.6606 44.7398 28.6937 44.7252 28.7215 44.7028C28.7808 44.6299 28.8243 44.5454 28.8491 44.4547C28.8739 44.3639 28.8795 44.269 28.8655 44.1759C28.85 44.1443 28.828 44.1162 28.8009 44.0937C28.7739 44.0712 28.7423 44.0548 28.7084 44.0454C28.6745 44.036 28.639 44.034 28.6043 44.0394C28.5696 44.0448 28.5364 44.0575 28.5069 44.0768C28.4478 44.1503 28.4045 44.2354 28.3797 44.3265C28.3549 44.4177 28.3492 44.513 28.3629 44.6065C28.3756 44.6394 28.3965 44.6684 28.4238 44.6908C28.451 44.7131 28.4835 44.728 28.5182 44.734H28.521Z" fill="#1D1D1B"/>
<path d="M30.7517 44.7849C30.8682 45.1116 30.945 45.4511 30.9804 45.7962C30.7899 45.8024 30.601 45.7584 30.4326 45.6687C30.4208 45.4379 30.38 45.2095 30.3112 44.9889C30.2411 45.0316 30.1663 45.0659 30.0881 45.0909L29.9808 45.5611C29.7987 45.5708 29.6176 45.5286 29.4585 45.4393L29.8171 43.9068C29.9989 43.8999 30.1793 43.942 30.3395 44.0286L30.2096 44.5952C30.4211 44.4819 30.6067 44.3256 30.7545 44.1363C30.9511 44.1306 31.1458 44.1765 31.3193 44.2694C31.1529 44.4649 30.9621 44.6382 30.7517 44.7849Z" fill="#1D1D1B"/>
<path d="M31.8219 46.0115C31.308 45.9133 31.1047 45.5875 31.212 45.0342C31.2412 44.8111 31.3556 44.608 31.531 44.4677C31.6198 44.4074 31.7204 44.3668 31.8261 44.3487C31.9318 44.3306 32.0401 44.3355 32.1438 44.3629C32.6558 44.463 32.8582 44.7887 32.7509 45.3402C32.7212 45.5638 32.6057 45.7671 32.429 45.9067C32.3408 45.9661 32.2412 46.0061 32.1366 46.0241C32.032 46.0422 31.9247 46.0379 31.8219 46.0115ZM31.9151 45.5356C31.9494 45.5446 31.9854 45.5449 32.0199 45.5365C32.0544 45.5281 32.0863 45.5113 32.1127 45.4875C32.1723 45.4147 32.2096 45.3261 32.22 45.2325C32.2465 45.14 32.2465 45.0418 32.22 44.9492C32.2045 44.9169 32.1811 44.8891 32.152 44.8683C32.1229 44.8474 32.0889 44.8344 32.0534 44.8303C32.0187 44.8202 31.982 44.8194 31.9469 44.8278C31.9117 44.8363 31.8794 44.8537 31.8529 44.8784C31.7929 44.9531 31.7557 45.0436 31.7456 45.139C31.7164 45.2312 31.7164 45.3302 31.7456 45.4223C31.7617 45.4526 31.7847 45.4786 31.8126 45.4983C31.8406 45.5179 31.8728 45.5307 31.9066 45.5356H31.9151Z" fill="#1D1D1B"/>
<path d="M33.9086 44.6688C34.0115 44.6763 34.1116 44.7054 34.2026 44.7542C34.2935 44.803 34.3733 44.8704 34.4366 44.9521C34.5508 45.1436 34.5853 45.3726 34.5326 45.5894C34.5114 45.8135 34.4194 46.0249 34.27 46.1928C34.2037 46.2571 34.1227 46.3042 34.0341 46.3298C33.9455 46.3555 33.852 46.359 33.7618 46.3401C33.6375 46.3263 33.5213 46.2715 33.4314 46.1843L33.3382 46.8018C33.1581 46.8216 32.9759 46.7933 32.8102 46.7197L33.1123 44.7594C33.3628 44.6504 33.6401 44.6189 33.9086 44.6688ZM33.8013 45.1475C33.7298 45.133 33.6557 45.1379 33.5867 45.1617L33.4992 45.7282C33.55 45.7912 33.6226 45.8326 33.7025 45.8444C33.751 45.8539 33.8014 45.848 33.8465 45.8274C33.8891 45.8053 33.9229 45.7693 33.9425 45.7254C33.9697 45.66 33.9887 45.5915 33.9989 45.5214C34.0191 45.4336 34.0122 45.3418 33.9792 45.258C33.9608 45.2264 33.935 45.1998 33.9039 45.1805C33.8729 45.1613 33.8377 45.15 33.8013 45.1475Z" fill="#1D1D1B"/>
<path d="M36.2014 46.6092C36.0383 46.6346 35.8714 46.6151 35.7186 46.5526L35.7976 45.8699C35.8021 45.8144 35.8115 45.7594 35.8259 45.7056C35.5922 45.9454 35.3857 46.2104 35.2103 46.4959C35.0404 46.5191 34.8675 46.4987 34.7077 46.4364L34.8856 44.8671C34.9661 44.8557 35.0479 44.8557 35.1284 44.8671C35.2091 44.8751 35.288 44.8952 35.3628 44.9266L35.295 45.6064C35.295 45.6744 35.2781 45.7311 35.2696 45.7707C35.4362 45.4784 35.6435 45.2113 35.8852 44.9776C35.9695 44.9662 36.055 44.9662 36.1393 44.9776C36.2246 44.985 36.3083 45.005 36.3878 45.0371L36.2014 46.6092Z" fill="#1D1D1B"/>
<path d="M38.2345 46.8103C38.0895 46.8043 37.9481 46.7635 37.8222 46.6913C37.7135 46.6242 37.6278 46.5254 37.5765 46.4081C37.5201 46.2661 37.4978 46.1127 37.5116 45.9605C37.5121 45.7313 37.5988 45.5108 37.7544 45.343C37.8278 45.2695 37.9165 45.213 38.0141 45.1778C38.1117 45.1425 38.2159 45.1293 38.3192 45.139C38.4185 45.1457 38.515 45.1747 38.6015 45.224C38.6818 45.2685 38.7475 45.3354 38.7907 45.4166C38.7706 45.4889 38.7349 45.5558 38.6861 45.6126C38.6373 45.6694 38.5766 45.7147 38.5084 45.7452C38.4905 45.7125 38.4645 45.6851 38.4327 45.6657C38.401 45.6463 38.3648 45.6357 38.3276 45.6348C38.2889 45.6296 38.2494 45.6333 38.2123 45.6455C38.1751 45.6578 38.1412 45.6783 38.113 45.7056C38.0596 45.7817 38.0319 45.8731 38.034 45.9662C38.0242 46.0155 38.0252 46.0664 38.0369 46.1153C38.0486 46.1642 38.0707 46.2099 38.1017 46.2494C38.1368 46.2826 38.1781 46.3084 38.2231 46.3254C38.2682 46.3424 38.3162 46.3503 38.3643 46.3486C38.46 46.356 38.5561 46.3435 38.6467 46.3118C38.7203 46.4415 38.7509 46.5912 38.7342 46.7395C38.5755 46.802 38.4043 46.8263 38.2345 46.8103Z" fill="#1D1D1B"/>
<path d="M39.5785 46.8641C39.387 46.8585 39.197 46.8271 39.0138 46.7707L39.0505 45.2807C39.252 45.2071 39.4659 45.1734 39.6802 45.1815C39.8586 45.1767 40.0345 45.225 40.1856 45.3203C40.2417 45.3593 40.2867 45.4121 40.3164 45.4736C40.3461 45.5351 40.3594 45.6033 40.355 45.6716C40.3562 45.7436 40.3366 45.8144 40.2986 45.8755C40.2633 45.9339 40.2097 45.9788 40.1461 46.003C40.2258 46.0222 40.2966 46.0682 40.3466 46.1333C40.3938 46.2002 40.4176 46.2809 40.4143 46.3628C40.4153 46.4663 40.3792 46.5668 40.3127 46.646C40.2371 46.7297 40.1391 46.7897 40.0303 46.8188C39.883 46.8572 39.7306 46.8725 39.5785 46.8641ZM39.6548 46.4336C39.796 46.4336 39.8665 46.3911 39.8694 46.2976C39.8722 46.2041 39.8044 46.1616 39.6689 46.1588H39.5305V46.4222C39.5716 46.4291 39.6131 46.4329 39.6548 46.4336ZM39.5334 45.8359H39.6717C39.796 45.8359 39.8609 45.7991 39.8609 45.7141C39.8609 45.6291 39.8044 45.5894 39.6802 45.5866C39.6333 45.5804 39.5859 45.5804 39.539 45.5866L39.5334 45.8359Z" fill="#1D1D1B"/>
<path d="M41.428 46.8783C40.9057 46.8783 40.6402 46.595 40.6318 46.0483C40.614 45.8223 40.6838 45.598 40.8266 45.4223C40.9001 45.3475 40.9882 45.2888 41.0854 45.2498C41.1825 45.2108 41.2867 45.1924 41.3913 45.1957C41.9137 45.1957 42.1763 45.4648 42.1848 46.0257C42.1945 46.1375 42.182 46.2501 42.1481 46.3571C42.1142 46.4641 42.0595 46.5632 41.9871 46.6489C41.9152 46.7243 41.8282 46.7837 41.7319 46.8232C41.6356 46.8627 41.532 46.8815 41.428 46.8783ZM41.428 46.3911C41.4634 46.3942 41.4989 46.388 41.5311 46.3731C41.5633 46.3582 41.591 46.3351 41.6116 46.3061C41.6574 46.2192 41.6761 46.1205 41.6652 46.0228C41.6721 45.9244 41.6506 45.826 41.6031 45.7396C41.5816 45.7111 41.5532 45.6886 41.5206 45.6742C41.4879 45.6598 41.4522 45.654 41.4167 45.6574C41.3808 45.6552 41.3449 45.6621 41.3124 45.6774C41.2798 45.6928 41.2516 45.7161 41.2304 45.7452C41.1871 45.833 41.1686 45.9309 41.1767 46.0285C41.1686 46.127 41.1903 46.2257 41.2388 46.3118C41.2606 46.3391 41.2887 46.3607 41.3207 46.3745C41.3527 46.3883 41.3876 46.394 41.4224 46.3911H41.428Z" fill="#1D1D1B"/>
<path d="M44.0032 46.7395C43.8463 46.7903 43.6789 46.7991 43.5176 46.765L43.4837 46.0767C43.4792 46.021 43.4792 45.9652 43.4837 45.9095C43.293 46.1853 43.1321 46.4806 43.0036 46.7905C42.84 46.8414 42.6662 46.8501 42.4982 46.816L42.4191 45.2353C42.4971 45.2115 42.5777 45.1973 42.6592 45.1929C42.7406 45.189 42.8222 45.1957 42.902 45.2127L42.9359 45.9039C42.9387 45.9586 42.9387 46.0134 42.9359 46.0682C43.055 45.7539 43.2166 45.4575 43.4159 45.1872C43.4974 45.1613 43.5818 45.1461 43.6672 45.1419C43.7524 45.1382 43.8377 45.1448 43.9213 45.1617L44.0032 46.7395ZM43.2691 44.6433C43.3169 44.6248 43.3675 44.6143 43.4187 44.6122C43.4709 44.6093 43.5232 44.6141 43.574 44.6263C43.5739 44.6832 43.5643 44.7397 43.5458 44.7934C43.528 44.8405 43.5 44.8831 43.4639 44.9181C43.426 44.9519 43.3832 44.9796 43.3368 45.0002C43.2817 45.021 43.2235 45.0325 43.1646 45.0342C43.055 45.0452 42.9453 45.0149 42.8568 44.9492C42.7762 44.8764 42.7276 44.7746 42.7213 44.666C42.7704 44.6487 42.8218 44.6392 42.8738 44.6376C42.925 44.6348 42.9764 44.6396 43.0262 44.6518C43.0317 44.6797 43.0477 44.7043 43.0708 44.7207C43.094 44.737 43.1225 44.7438 43.1505 44.7396C43.1795 44.7412 43.2081 44.7315 43.2302 44.7125C43.2523 44.6935 43.2662 44.6667 43.2691 44.6376V44.6433Z" fill="#1D1D1B"/>
<path d="M46.2311 46.578C46.1029 46.6012 45.9711 46.5952 45.8455 46.5603C45.7198 46.5255 45.6036 46.4629 45.5054 46.3769C45.3218 46.1513 45.2072 45.8771 45.1756 45.5875C45.1441 45.298 45.1968 45.0054 45.3275 44.7453C45.4015 44.638 45.499 44.5493 45.6126 44.4859C45.7262 44.4226 45.8528 44.3863 45.9826 44.3799C46.1115 44.3569 46.244 44.3632 46.3701 44.3985C46.4962 44.4339 46.6127 44.4972 46.7111 44.5838C46.8952 44.8087 47.0101 45.0824 47.0417 45.3717C47.0733 45.6609 47.0202 45.9531 46.889 46.2126C46.8141 46.3195 46.7159 46.4079 46.6019 46.4712C46.488 46.5345 46.3612 46.571 46.2311 46.578ZM46.1746 46.0767C46.233 46.075 46.2898 46.0579 46.3394 46.027C46.389 45.9962 46.4296 45.9527 46.457 45.901C46.5008 45.7487 46.5142 45.5892 46.4962 45.4317C46.4783 45.2741 46.4295 45.1217 46.3525 44.9832C46.3152 44.939 46.2666 44.9056 46.212 44.8867C46.1573 44.8677 46.0986 44.8639 46.0419 44.8756C45.9636 44.8806 45.8892 44.9115 45.8302 44.9634C45.7751 45.0211 45.7387 45.0942 45.7257 45.173C45.7098 45.2886 45.7098 45.4059 45.7257 45.5215C45.7331 45.6809 45.7828 45.8354 45.8697 45.969C45.9069 46.0119 45.9546 46.0443 46.008 46.0632C46.0615 46.0821 46.1189 46.0867 46.1746 46.0767Z" fill="#1D1D1B"/>
<path d="M48.7244 44.5583L48.9701 46.139C48.8884 46.1763 48.8019 46.202 48.7131 46.2155C48.6194 46.2276 48.5245 46.2276 48.4307 46.2155L48.2557 45.0824L47.9903 45.1249L48.0128 45.6234C48.0357 45.817 48.0044 46.0132 47.9225 46.19C47.8831 46.2532 47.8298 46.3065 47.7666 46.3458C47.7035 46.3851 47.6322 46.4093 47.5582 46.4166C47.4421 46.4334 47.3237 46.4208 47.2137 46.3798C47.1801 46.2331 47.197 46.0793 47.2617 45.9435C47.2991 45.9505 47.3374 45.9505 47.3747 45.9435C47.3943 45.9409 47.4129 45.9332 47.4287 45.9213C47.4445 45.9094 47.457 45.8937 47.465 45.8755C47.4853 45.8164 47.493 45.7537 47.4876 45.6914L47.4453 44.7595L47.9733 44.6773L48.7244 44.5583Z" fill="#1D1D1B"/>
<path d="M50.797 45.7821C50.65 45.8552 50.4862 45.8875 50.3226 45.8755L50.1871 45.2014C50.1871 45.1334 50.1673 45.0795 50.1645 45.0371C50.0168 45.3374 49.9014 45.6527 49.82 45.9775C49.6654 46.0522 49.4944 46.0864 49.323 46.0767L49.0153 44.5272C49.1615 44.4546 49.324 44.4214 49.4868 44.4309L49.6223 45.1107C49.6345 45.1648 49.6429 45.2197 49.6478 45.275C49.7187 44.9461 49.8346 44.6287 49.9922 44.3317C50.0692 44.2944 50.1509 44.2677 50.2351 44.2524C50.3184 44.2336 50.404 44.2269 50.4892 44.2326L50.797 45.7821Z" fill="#1D1D1B"/>
<path d="M51.1076 45.7197C50.9935 45.2022 50.9115 44.6781 50.8619 44.1504C51.0051 44.0709 51.1671 44.0317 51.3307 44.0371C51.5449 44.2579 51.7387 44.4977 51.9095 44.7538C51.9356 44.4479 51.9914 44.1452 52.0761 43.8502C52.2183 43.7734 52.3777 43.7343 52.5392 43.7368C52.7394 44.2275 52.91 44.7298 53.0503 45.241C52.9129 45.3194 52.7564 45.3577 52.5985 45.3515C52.5166 45.0456 52.4319 44.785 52.35 44.564C52.2873 44.7797 52.2438 45.0006 52.2201 45.224C52.1122 45.294 51.9837 45.325 51.8559 45.3118C51.7296 45.1265 51.5869 44.953 51.4295 44.7934C51.4629 45.0676 51.51 45.3399 51.5707 45.6093C51.4294 45.6882 51.2692 45.7264 51.1076 45.7197Z" fill="#1D1D1B"/>
<path d="M54.3266 43.1958L54.7755 44.7311C54.6229 44.8292 54.4458 44.8822 54.2645 44.8841L53.9482 43.8105L53.5472 43.9295L53.8607 45.0002C53.708 45.0983 53.5309 45.1514 53.3496 45.1532L52.8978 43.615L53.4117 43.4649L54.3266 43.1958Z" fill="#1D1D1B"/>
<path d="M20.914 32.3664L20.866 32.3806C20.8816 32.3754 20.8984 32.3754 20.914 32.3806V32.3664ZM13.2901 39.1875L13.5103 39.0941L13.996 38.9071C13.8068 38.9581 12.9061 37.2698 12.0392 35.0915C11.1723 32.9131 10.6951 31.0577 10.8928 30.9642L10.3591 31.1682L10.136 31.256C9.9158 31.341 10.3873 33.2105 11.2655 35.3946C12.1437 37.5786 13.0924 39.2612 13.2873 39.1875H13.2901ZM10.393 31.5591C10.3676 31.5421 10.3196 31.5109 10.3224 31.5053C10.3591 31.4401 10.4043 31.3778 10.4438 31.3155L10.5003 31.4316L10.393 31.5591ZM1.97561 38.0743C1.32052 38.4085 0.673899 38.7541 0.0301011 39.1026C-0.0320198 39.1394 0.00186436 39.4142 0.131754 39.7881L0.222111 39.7399C0.250348 39.6974 0.303998 39.6493 0.318116 39.6549C0.329355 39.6533 0.340761 39.6533 0.352 39.6549C0.98168 39.3122 1.61701 38.9722 2.25516 38.6437C2.15915 38.4595 2.06315 38.2641 1.97561 38.0743ZM20.9366 32.6412L20.6966 32.4854C20.7473 32.4457 20.8001 32.4088 20.8547 32.3749C18.1214 33.1171 15.4323 33.9876 12.7875 34.9866L13.1263 35.8195C16.0737 34.708 19.0787 33.7568 22.1282 32.9698L21.2077 32.5109L20.9366 32.6412ZM13.7701 35.4087C13.7306 35.4087 13.6939 35.3577 13.6572 35.3294L13.8096 35.2076C13.8407 35.2614 13.8859 35.3039 13.8831 35.3436C13.8802 35.3832 13.8068 35.4087 13.7701 35.4087ZM7.26154 37.1338C6.97917 36.5418 6.72504 35.9554 6.47656 35.3861C5.89206 34.0462 5.36967 32.763 4.92918 31.5704C4.90875 31.5132 4.8768 31.4609 4.83531 31.4167C4.79382 31.3725 4.74369 31.3373 4.68805 31.3134C4.63241 31.2894 4.57245 31.2773 4.51191 31.2777C4.45138 31.278 4.39156 31.2909 4.33621 31.3155L3.74041 31.5789C3.54621 31.6663 3.39191 31.8238 3.30819 32.0201C3.22448 32.2164 3.21749 32.4371 3.28862 32.6383C3.95709 34.4375 4.71767 36.2008 5.56733 37.9213C8.14817 43.1845 10.7149 47.1927 11.4688 46.85C11.7399 46.7253 12.011 46.6035 12.282 46.4846C10.7224 44.0372 9.319 41.4931 8.08041 38.8674C7.80933 38.3009 7.53543 37.7259 7.26154 37.1282V37.1338ZM4.70046 32.2928C4.66658 32.2673 4.59599 32.2304 4.59881 32.2134C4.64374 32.086 4.69558 31.9612 4.75411 31.8395C4.81059 31.9585 4.85859 32.0123 4.84447 32.0435C4.80413 32.1308 4.75593 32.2142 4.70046 32.2928ZM5.61251 37.301C5.55886 37.2811 5.5278 37.2188 5.48827 37.1735C5.5476 37.1607 5.60839 37.1559 5.66898 37.1593C5.76157 37.1988 5.84961 37.2482 5.93159 37.3066C5.82494 37.3148 5.7177 37.309 5.61251 37.2896V37.301ZM6.02759 35.4767C5.92442 35.4306 5.82443 35.3776 5.72828 35.3181C5.77064 35.2756 5.83558 35.1878 5.8497 35.1934C5.96208 35.253 6.0714 35.3183 6.17725 35.3889C6.10101 35.4257 6.05018 35.4739 6.02759 35.4654V35.4767ZM7.10059 40.5756C7.10059 40.5529 7.05823 40.5302 7.06388 40.5189C7.08202 40.4777 7.10475 40.4388 7.13165 40.4028C7.14859 40.4028 7.18248 40.4396 7.17965 40.4481C7.15603 40.4913 7.12962 40.5329 7.10059 40.5727V40.5756ZM3.04296 34.202C2.72107 33.4258 2.44152 32.6723 2.21563 32.0095C2.01232 32.1086 1.27252 32.5194 1.06921 32.6185C0.786847 32.763 0.942149 33.6779 1.42217 35.0178L3.04296 34.202ZM4.49433 30.341C4.12796 29.2936 3.82249 28.2258 3.57946 27.1429L2.55729 27.5961C2.05185 27.8256 2.17892 29.1428 2.76342 31.0747L4.49433 30.341ZM2.80013 29.5535L2.90743 29.7745L2.79166 29.817C2.75495 29.749 2.71542 29.681 2.68436 29.6074C2.72228 29.5853 2.76195 29.5663 2.80295 29.5507L2.80013 29.5535ZM6.79281 26.3271C6.52793 25.3967 6.36415 24.4403 6.30431 23.4746C6.21395 23.4122 6.12924 23.3471 6.04453 23.2763C6.03685 23.2629 6.03281 23.2478 6.03281 23.2324C6.03281 23.217 6.03685 23.2018 6.04453 23.1885C6.04453 23.1658 6.10101 23.1601 6.14054 23.1403L6.31843 23.1941C6.34384 22.7551 6.45679 22.4775 6.66857 22.3981C5.93441 22.6814 5.20308 22.9647 4.47457 23.2706C3.85618 23.5256 3.90983 25.0014 4.47457 27.2194L6.79281 26.3271ZM4.92071 26.4291L4.9913 26.5225C4.93765 26.5509 4.88683 26.582 4.83318 26.6047C4.81186 26.5879 4.7945 26.5667 4.78235 26.5424C4.82471 26.5027 4.87271 26.4659 4.92071 26.4291ZM68.6991 45.0172C68.6402 44.9785 68.5854 44.9338 68.5353 44.8841L68.6935 44.8359C68.7612 44.8501 68.8177 44.8558 68.8629 44.8671C70.0827 42.7596 71.5171 39.924 72.9685 36.7514C74.1061 34.2977 75.1035 31.781 75.956 29.2136C76.0433 28.9357 76.0221 28.6349 75.8969 28.372C75.7716 28.1091 75.5515 27.9036 75.2811 27.7973L74.3634 27.4347C74.3115 27.4138 74.2558 27.404 74.1999 27.4058C74.144 27.4076 74.0891 27.4211 74.0387 27.4453C73.9883 27.4695 73.9434 27.504 73.9069 27.5466C73.8705 27.5891 73.8432 27.6388 73.8269 27.6925C73.6067 28.4346 73.3469 29.2363 73.0532 30.0832C73.0306 30.1484 73.008 30.2136 72.9826 30.2815C72.9177 31.1512 72.2005 31.8707 72.0282 32.8536L71.9887 32.9613C71.6244 33.8932 71.2319 34.8563 70.814 35.8393C70.1844 37.3151 69.5603 38.7201 68.9589 40.0203C68.9363 40.0685 68.9165 40.1167 68.8939 40.162C68.4365 40.8588 68.2586 41.7568 67.7955 42.4593L67.7334 42.5868C66.0392 46.0058 64.6782 48.1728 64.1671 47.9689C64.7093 48.1823 65.2505 48.4004 65.7907 48.6232C66.2764 48.8272 67.372 47.4307 68.764 45.0456L68.6991 45.0172ZM71.6583 35.015C71.6903 35.0037 71.7252 35.0037 71.7571 35.015C71.7769 35.015 71.7854 35.0575 71.808 35.0943H71.647C71.6498 35.0631 71.647 35.015 71.6583 35.015ZM70.7915 37.6211L70.8762 37.6664C70.8565 37.6866 70.8347 37.7047 70.8112 37.7202C70.7952 37.7188 70.7802 37.7118 70.7689 37.7004C70.7734 37.6732 70.781 37.6466 70.7915 37.6211ZM69.9443 39.1196C69.9585 39.1196 69.9867 39.1564 70.0347 39.2045C69.968 39.2219 69.9 39.2343 69.8314 39.2414C69.806 39.2414 69.7806 39.2017 69.7523 39.1819C69.8114 39.1577 69.8717 39.1369 69.9331 39.1196H69.9443ZM67.7786 45.6348C67.691 45.5838 67.6092 45.5554 67.612 45.5356C67.6148 45.5158 67.6487 45.3968 67.691 45.3826C67.8451 45.3421 68.0017 45.3118 68.1598 45.292C68.179 45.3149 68.1926 45.3421 68.1993 45.3713C68.0497 45.4563 67.9028 45.5413 67.7673 45.6263L67.7786 45.6348ZM77.7207 32.6412C77.7919 32.4399 77.7849 32.2192 77.7012 32.0229C77.6175 31.8266 77.4632 31.6691 77.269 31.5817L76.6732 31.3183C76.6178 31.2937 76.558 31.2808 76.4975 31.2805C76.4369 31.2801 76.377 31.2923 76.3213 31.3162C76.2657 31.3401 76.2156 31.3753 76.1741 31.4195C76.1326 31.4637 76.1006 31.5161 76.0802 31.5732C75.8995 32.0605 75.7018 32.5675 75.4957 33.0831C75.4957 33.1284 75.4759 33.1567 75.4675 33.1822H75.4477C75.1597 33.8998 74.851 34.6373 74.5215 35.3946C74.273 35.9611 74.0104 36.5503 73.7365 37.1423C73.4627 37.7344 73.1888 38.3151 72.9149 38.8759C71.6782 41.502 70.2757 44.0462 68.716 46.4931L69.5293 46.8585C70.094 47.1219 71.7656 44.8076 73.6716 41.3234L73.7478 41.1846C73.9848 40.5795 74.2898 40.0036 74.6571 39.468L74.7333 39.3178C74.9648 38.8674 75.1964 38.4029 75.4279 37.9298C76.2801 36.2053 77.0416 34.4371 77.7095 32.6327L77.7207 32.6412ZM71.0512 44.2977C71.0032 44.2977 70.9552 44.1929 70.9072 44.1363C70.9609 44.1023 71.0258 44.0286 71.0682 44.0371C71.1843 44.0761 71.296 44.1273 71.4014 44.1901C71.2856 44.2384 71.1641 44.2717 71.0399 44.2892L71.0512 44.2977ZM73.5417 39.6464C73.4627 38.5134 73.6405 37.6239 73.666 39.5728C73.6575 39.5813 73.5756 39.6124 73.5304 39.6379L73.5417 39.6464ZM73.9398 38.1678C73.8551 38.0573 73.7676 37.9978 73.7732 37.944C73.7902 37.7117 74.1036 37.8817 74.1827 37.7117L74.3041 37.7627L73.9398 38.1678ZM68.2219 34.9951C65.5639 33.9886 62.8588 33.1133 60.1067 32.3692L58.8812 32.9783C61.9298 33.7648 64.9339 34.7161 67.8802 35.828C67.8802 35.828 68.2078 34.9895 68.2106 34.9866L68.2219 34.9951ZM79.5872 35.0121C80.0672 33.6723 80.231 32.746 79.9402 32.6128C79.7369 32.5137 78.997 32.103 78.7937 32.0038C78.565 32.6808 78.2883 33.4202 77.9664 34.2077L79.5872 35.0121ZM68.4647 34.4456C68.589 34.0802 68.6483 33.8366 68.6483 33.8366C66.3893 32.9811 64.0899 32.2182 61.75 31.5478L60.9651 31.9387C60.9765 31.9579 60.9869 31.9778 60.9961 31.9981C63.5186 32.7025 66.0044 33.5174 68.4534 34.4428L68.4647 34.4456ZM76.5207 27.2194C77.0854 25.0014 77.1391 23.5369 76.5207 23.2706C75.795 22.9703 75.0637 22.6814 74.3295 22.3981C74.8745 22.6049 74.7728 24.0978 74.194 26.3271L76.5207 27.2194ZM76.8595 24.4264C76.8595 24.4264 76.8849 24.4603 76.8821 24.466C76.8793 24.4717 76.8341 24.5057 76.8115 24.5255C76.7889 24.5453 76.7805 24.4915 76.7833 24.4887C76.7861 24.4858 76.8454 24.449 76.8708 24.4264H76.8595ZM76.5998 26.2818L76.7042 26.3356C76.6755 26.3669 76.6422 26.3937 76.6054 26.4149C76.5856 26.4149 76.5489 26.3894 76.5207 26.3752L76.5998 26.2818ZM78.2234 31.0747C78.8079 29.1428 78.9349 27.8256 78.4295 27.5961L77.4073 27.1401C77.1643 28.223 76.8588 29.2908 76.4925 30.3382L78.2234 31.0747ZM67.0049 38.9099L67.4849 39.0912L67.7052 39.1847C67.9 39.2584 68.8346 37.5757 69.7185 35.3946C70.6023 33.2134 71.0766 31.341 70.8479 31.256L70.6248 31.1682H70.6051C70.6051 31.2022 70.5853 31.2333 70.5769 31.2701C70.5364 31.253 70.4977 31.2322 70.4611 31.2078C70.4611 31.1795 70.4837 31.1512 70.4921 31.1257L70.0912 30.9699C70.2888 31.0634 69.8088 32.9188 68.9419 35.0971C68.0751 37.2755 67.2026 38.9609 67.0049 38.9099ZM69.4191 34.8903C69.4877 34.9068 69.5534 34.9335 69.614 34.9696C69.5406 35.0235 69.4926 35.0801 69.4643 35.0745C69.4085 35.0499 69.357 35.0164 69.3118 34.9753C69.3485 34.9442 69.3853 34.8903 69.4191 34.8903ZM20.1093 31.967L19.2622 31.5449C16.9279 32.2172 14.6276 32.9802 12.3611 33.8337C12.3611 33.8337 12.4232 34.0773 12.5446 34.4428C15.0201 33.5061 17.5416 32.6808 20.1093 31.967ZM18.7737 31.7262L18.9996 31.9585C18.9205 32.0095 18.8443 32.0803 18.8245 32.0718C18.7474 32.036 18.6847 31.9751 18.6466 31.899C18.6353 31.8509 18.7257 31.78 18.7737 31.7262ZM16.3284 47.7196C16.2211 47.7536 16.1025 47.8329 16.046 47.8074C15.9214 47.7419 15.8087 47.6557 15.7128 47.5525C15.7128 47.5525 15.7495 47.4902 15.7552 47.493L16.2578 47.6828C16.2823 47.6944 16.3078 47.7039 16.334 47.7111C15.7693 47.1446 14.8713 45.6857 13.8238 43.6547C13.8068 43.6207 13.7899 43.5867 13.7701 43.5527C13.259 43.0117 13.0811 42.2922 12.7988 41.5953C12.7818 41.5557 12.7621 41.516 12.7423 41.4764C11.9404 39.7994 11.0763 37.8817 10.201 35.8336C10.088 35.5673 9.97791 35.3039 9.87062 35.0433C9.85367 35.0065 9.83673 34.9696 9.82261 34.9328C9.13928 34.0235 9.13928 32.7658 8.54349 31.6866L8.46725 31.4826C7.95899 30.1087 7.52696 28.8284 7.1853 27.6868C7.1693 27.6332 7.14236 27.5836 7.10617 27.5411C7.06999 27.4985 7.02536 27.4641 6.97514 27.4398C6.92493 27.4155 6.87022 27.4021 6.81452 27.4002C6.75881 27.3983 6.70334 27.4082 6.65162 27.429L5.71981 27.7888C5.44939 27.8952 5.22931 28.1006 5.10404 28.3635C4.97877 28.6264 4.95765 28.9272 5.04495 29.2051C5.89645 31.7725 6.89294 34.2892 8.02958 36.7429C8.48701 37.7485 8.94727 38.7258 9.39624 39.6436H9.57413C9.57413 39.6436 9.60519 39.7257 9.60237 39.7257L9.46683 39.7739C10.969 42.853 12.3809 45.4081 13.4567 46.9661C13.5216 46.9661 13.5753 46.9661 13.5781 46.9831C13.5947 47.043 13.6014 47.1052 13.5979 47.1672C14.332 48.1983 14.8968 48.7281 15.2102 48.5836C15.7495 48.3598 16.2888 48.1417 16.8338 47.9292C16.7124 48.0114 16.5401 47.9236 16.3284 47.7168V47.7196ZM10.1163 36.6126C10.0897 36.5592 10.0661 36.5044 10.0457 36.4483C10.0457 36.4483 10.0965 36.4172 10.1219 36.403C10.1574 36.4503 10.1904 36.4995 10.2208 36.5503C10.1861 36.5721 10.1503 36.5919 10.1135 36.6098L10.1163 36.6126ZM10.6048 41.2894C10.5878 41.2894 10.5709 41.2497 10.5568 41.2299C10.6415 41.2299 10.7262 41.2101 10.8137 41.2072C10.8363 41.2072 10.8589 41.2327 10.9267 41.2752C10.7798 41.2809 10.6895 41.2894 10.6019 41.2866L10.6048 41.2894ZM14.5382 45.3232L14.3913 45.2212C14.4309 45.207 14.4789 45.1702 14.5099 45.1815C14.5591 45.2064 14.6047 45.2378 14.6455 45.275L14.5382 45.3232ZM79.0394 36.369C79.1067 36.2097 79.1112 36.0307 79.0519 35.8682C78.9927 35.7057 78.8742 35.5719 78.7203 35.4937L78.0652 35.1594C78.0114 35.132 77.9526 35.1158 77.8923 35.112C77.8321 35.1082 77.7717 35.1167 77.7148 35.1372C77.658 35.1576 77.6059 35.1894 77.5617 35.2308C77.5176 35.2721 77.4824 35.3221 77.4582 35.3776C77.0515 36.3123 76.5913 37.2953 76.0943 38.3009C75.0925 40.3482 73.986 42.3422 72.7793 44.2751C72.9544 44.36 73.666 44.7595 73.841 44.8416C74.2956 45.0654 76.0011 42.5131 77.7264 39.1564C78.2318 38.1649 78.678 37.216 79.0394 36.3605V36.369ZM78.4295 35.4059C78.4521 35.4059 78.4549 35.4569 78.4662 35.4824L78.3871 35.5249C78.3702 35.4909 78.3533 35.4569 78.3391 35.4229C78.3702 35.4087 78.4097 35.3861 78.4295 35.4087V35.4059ZM74.4142 42.4366C74.3355 42.3576 74.261 42.2744 74.1912 42.1874C74.2505 42.1675 74.3408 42.1194 74.3662 42.1392C74.4572 42.2199 74.5404 42.3091 74.6147 42.4055C74.5046 42.4168 74.434 42.4451 74.4142 42.4281V42.4366ZM75.0806 42.6803L74.9959 42.6378L75.0637 42.5386L75.1258 42.6066L75.0806 42.6803ZM76.4303 39.3745L76.2524 39.1564C76.3089 39.1195 76.388 39.0431 76.4134 39.0572C76.4388 39.0714 76.5066 39.1564 76.563 39.2272C76.5037 39.2867 76.467 39.3292 76.4303 39.3745ZM5.64639 39.7796C5.63452 39.7544 5.62597 39.7277 5.62098 39.7003C5.38756 39.247 5.15131 38.7806 4.91224 38.3009C4.41245 37.2953 3.95501 36.318 3.54558 35.3776C3.52167 35.3222 3.4867 35.2723 3.44283 35.231C3.39895 35.1896 3.34711 35.1578 3.29049 35.1373C3.23387 35.1169 3.17367 35.1083 3.11362 35.1121C3.05356 35.1159 2.99492 35.132 2.94131 35.1594L2.28622 35.4937C2.13235 35.5719 2.01365 35.7056 1.95394 35.8679C1.89424 36.0303 1.89794 36.2093 1.96432 36.369C2.08856 36.6523 2.2241 36.961 2.36246 37.2698H2.38505H2.37093C2.6533 37.8703 2.93566 38.4964 3.28015 39.1422L3.43263 39.4255C3.45805 39.4736 3.48346 39.5218 3.50605 39.57C4.29385 40.652 4.65246 41.7285 5.31602 42.7312C5.33579 42.7652 5.35838 42.7992 5.38097 42.8332C6.22807 44.1589 6.90575 44.9436 7.16553 44.8161C7.3406 44.7311 8.05217 44.3317 8.22724 44.2496C7.4479 43.023 6.56409 41.482 5.66051 39.7484L5.64639 39.7796ZM78.3815 39.3745C78.1499 39.8221 77.9156 40.2498 77.6897 40.6435C78.3222 40.9684 78.9509 41.3017 79.5759 41.6435C79.6719 41.6973 80.1406 41.2214 80.536 40.5104C80.6037 40.3943 78.4436 39.2499 78.3815 39.3745ZM78.3024 40.4594L78.2459 40.3886C78.2723 40.3766 78.2997 40.3672 78.3278 40.3603C78.3278 40.3603 78.3561 40.3886 78.3504 40.3971C78.336 40.4172 78.3199 40.4362 78.3024 40.4538V40.4594ZM79.5392 40.9551C79.5166 40.9353 79.4827 40.9155 79.4771 40.8928C79.4714 40.8702 79.5166 40.856 79.5392 40.8362L79.5985 40.8985L79.5392 40.9551ZM80.968 39.1082C80.3242 38.7598 79.6747 38.4142 79.0225 38.0799C78.9349 38.2697 78.8389 38.4652 78.7401 38.6635C79.4535 39.0412 80.1623 39.4189 80.8663 39.7966C80.9962 39.4142 81.0386 39.1394 80.968 39.0912V39.1082ZM0.462124 40.5076C0.846144 41.2157 1.32617 41.6916 1.41088 41.6407C1.97561 41.3291 2.55164 41.0231 3.13897 40.7229L3.2971 40.6407L3.21239 40.4906C3.01285 40.1393 2.81048 39.7616 2.60529 39.3575C2.55447 39.2499 0.394355 40.3943 0.462124 40.5076ZM2.2241 41.1024L2.08574 41.0203C2.06032 40.9665 2.00103 40.9013 2.01797 40.8702C2.03491 40.839 2.12245 40.7993 2.17892 40.7653C2.2128 40.8135 2.26928 40.8588 2.2721 40.9098C2.26743 40.9791 2.2512 41.0471 2.2241 41.1109V41.1024Z" fill="white"/>
<path d="M34.9421 10.0079C35.0199 9.95978 35.0919 9.90274 35.1567 9.83796L35.1792 9.8238L35.6339 11.0758L35.3515 11.2175L34.9421 10.0079Z" fill="white"/>
<path d="M27.0499 8.73604L26.968 8.63123H26.9623C26.9507 8.51392 26.9089 8.40166 26.8409 8.30547C26.7816 8.20349 26.7477 8.13551 26.7816 8.05619L27.0809 8.42444V8.44144C27.057 8.53387 27.0466 8.62928 27.0499 8.72471V8.73604Z" fill="white"/>
<path d="M29.5093 14.2485L29.2269 14.3901L24.9604 10.0221C24.9489 10.0087 24.9429 9.99154 24.9434 9.97393C24.9871 9.94686 25.0347 9.92679 25.0846 9.91444L29.5093 14.2485Z" fill="white"/>
<path d="M33.7194 5.87501C33.725 5.88351 33.7448 5.90617 33.7448 5.926L33.7985 5.97699L34.3632 7.56047L34.287 7.59163L34.2164 7.69077C34.2162 7.71993 34.2105 7.74879 34.1994 7.77576L33.8154 6.64268H33.8323L33.9058 6.49254C33.8881 6.45144 33.861 6.41512 33.8266 6.38656C33.7923 6.358 33.7516 6.33802 33.7081 6.32825L33.1885 4.79292C33.1821 4.77225 33.1838 4.74988 33.1932 4.7304C33.2027 4.71092 33.2192 4.69579 33.2394 4.68811H33.2676C33.2844 4.68782 33.3008 4.69288 33.3145 4.70255C33.3282 4.71223 33.3385 4.72602 33.3438 4.74194L33.5556 5.3283L33.5387 5.34247L33.5076 5.36513L33.4596 5.46711C33.4653 5.51849 33.4818 5.56808 33.5081 5.61254C33.5344 5.657 33.5698 5.6953 33.6121 5.72488C33.6567 5.75784 33.6934 5.80044 33.7194 5.84952V5.87501Z" fill="white"/>
<path d="M27.9817 9.59718C27.9542 9.63685 27.9314 9.67964 27.9139 9.72465C27.9067 9.75183 27.8973 9.77835 27.8857 9.80397L27.3209 9.09296L27.3633 9.11562H27.4762C27.5151 9.08827 27.5511 9.05694 27.5835 9.02214L28.024 9.56319L27.9817 9.59718Z" fill="white"/>
<path d="M36.961 9.54619H37.0033C37.0213 9.54417 37.0394 9.54512 37.057 9.54902L37.2236 10.243L36.8847 10.4187L36.6617 9.38189C36.7366 9.40798 36.8037 9.45283 36.8565 9.5122L36.961 9.54619Z" fill="white"/>
<path d="M33.7589 11.7472L33.8098 11.7189C33.8535 11.6726 33.8874 11.6178 33.9092 11.5578C33.9311 11.4979 33.9405 11.4341 33.9368 11.3704L34.1599 11.8237L33.8239 11.9965L33.7081 11.7472H33.7589Z" fill="white"/>
<path d="M29.3935 7.69644C29.3786 7.72413 29.3616 7.75064 29.3427 7.77576L29.3145 7.82108L29.0886 7.45283C29.1387 7.46332 29.1898 7.46901 29.241 7.46982H29.306L29.4076 7.62845C29.3935 7.65112 29.3935 7.67378 29.3935 7.69644Z" fill="white"/>
<path d="M29.4867 11.5517C29.4263 11.5538 29.3664 11.5643 29.3088 11.5829L29.2862 11.5744L28.4674 10.5206L28.4928 10.5008C28.5521 10.4838 28.5747 10.4328 28.5916 10.379C28.6085 10.3252 28.6198 10.311 28.6565 10.311L28.8401 10.5376C28.84 10.5854 28.8566 10.6317 28.887 10.6685C28.9175 10.7053 28.9598 10.7301 29.0067 10.7388L29.9244 11.8718C29.894 11.9083 29.8724 11.9513 29.8611 11.9974C29.8499 12.0436 29.8493 12.0917 29.8594 12.1381C29.8657 12.1697 29.8807 12.1989 29.9026 12.2225C29.9246 12.246 29.9527 12.2629 29.9837 12.2712L30.074 12.2571C30.1096 12.2302 30.1369 12.1939 30.1531 12.1523L30.5371 12.6282V12.6593L30.5766 12.7245C30.6065 12.7553 30.6312 12.7907 30.6501 12.8293C30.6663 12.8593 30.6852 12.8877 30.7065 12.9143C30.7119 12.9693 30.7313 13.022 30.763 13.0672V13.0871L30.8848 13.0733L30.9635 13.0644C30.9612 13.0702 30.9578 13.0754 30.9534 13.0798C30.949 13.0842 30.9438 13.0876 30.9381 13.0899H30.9183C30.9118 13.0897 30.9054 13.0881 30.8995 13.0851C30.894 13.0824 30.889 13.0785 30.8851 13.0737L31.1386 13.3845L30.7997 13.5601L29.5121 11.9058H29.5291C29.5986 11.8617 29.649 11.7929 29.6702 11.7132V11.6735L29.6138 11.5829C29.575 11.5613 29.5311 11.5506 29.4867 11.5517Z" fill="white"/>
<path d="M36.5092 7.24038C36.4669 7.2117 36.4367 7.16829 36.4245 7.11857C36.4366 7.09915 36.4508 7.0811 36.4668 7.06475L36.5092 7.24038Z" fill="white"/>
<path d="M35.8033 4.53232L35.84 4.62296H35.8372C35.853 4.64038 35.871 4.65563 35.8908 4.66829L36.3652 6.65117H36.2918C36.218 6.65094 36.1446 6.66241 36.0743 6.68517L34.7867 0.736501C34.7825 0.715137 34.7865 0.692934 34.7981 0.674482C34.8096 0.65603 34.8278 0.642739 34.8489 0.637357C34.8602 0.64019 34.8743 0.645855 34.8743 0.677015L34.9025 0.895132L35.0126 0.982946L35.84 4.436C35.8164 4.46249 35.8033 4.49678 35.8033 4.53232Z" fill="white"/>
<path d="M17.6922 14.3844C17.7033 14.3811 17.715 14.3811 17.7261 14.3844L22.4614 16.6166C22.467 16.7101 22.4925 16.8206 22.4925 16.9367L17.6583 14.5374C17.6485 14.5331 17.6397 14.5269 17.6323 14.5191C17.625 14.5113 17.6193 14.5021 17.6156 14.4921C17.6119 14.482 17.6103 14.4713 17.6108 14.4606C17.6114 14.4499 17.6141 14.4394 17.6188 14.4298C17.6256 14.4161 17.6361 14.4046 17.6491 14.3966C17.662 14.3886 17.677 14.3844 17.6922 14.3844Z" fill="white"/>
<path d="M24.4436 15.2399L25.878 16.1209L25.6154 16.2653L24.3053 15.4155C24.3311 15.3845 24.3616 15.3578 24.3956 15.3362L24.4436 15.2569V15.2399Z" fill="white"/>
<path d="M15.7526 19.8642C15.741 19.8462 15.7368 19.8244 15.741 19.8034V19.8062C15.745 19.7898 15.7539 19.775 15.7665 19.7639C15.7792 19.7527 15.7949 19.7458 15.8116 19.7439L17.9774 20.2085L17.695 20.3558L15.8032 19.8997C15.7823 19.8949 15.7642 19.8822 15.7526 19.8642Z" fill="white"/>
<path d="M37.9953 3.59743C38.0046 3.59256 38.015 3.58969 38.0255 3.58903V3.59186C38.0363 3.59027 38.0473 3.59084 38.0578 3.59355C38.0683 3.59626 38.0782 3.60105 38.0869 3.60765C38.0956 3.61424 38.1029 3.6225 38.1083 3.63195C38.1138 3.6414 38.1173 3.65185 38.1187 3.66268L38.8387 9.41589L38.5564 9.55469L38.4914 8.91167L38.5789 8.77003C38.5713 8.74304 38.5569 8.71846 38.5372 8.69863C38.5174 8.67879 38.4929 8.66437 38.466 8.65672L37.9549 3.67684C37.9533 3.66635 37.9539 3.65565 37.9567 3.6454C37.9595 3.63516 37.9643 3.62561 37.9709 3.61735C37.9776 3.60909 37.9859 3.60231 37.9953 3.59743Z" fill="white"/>
<path d="M23.5711 17.2738C23.5823 17.302 23.5823 17.3334 23.5711 17.3616C23.5547 17.3823 23.5321 17.397 23.5066 17.4037C23.4812 17.4103 23.4543 17.4085 23.4299 17.3984C23.4035 17.3943 23.3783 17.3846 23.3559 17.3699C23.3335 17.3553 23.3145 17.336 23.3 17.3134C23.2774 17.2681 23.3254 17.2455 23.2294 17.22C23.1334 17.1945 23.0346 17.22 22.9471 17.1945C22.923 17.1892 22.9008 17.1775 22.8829 17.1605C22.865 17.1435 22.852 17.122 22.8454 17.0982C22.8437 17.0624 22.8525 17.0269 22.8708 16.9962C22.8784 16.9818 22.8879 16.9684 22.8991 16.9565C22.909 16.9434 22.9215 16.9325 22.9357 16.9242C22.9499 16.916 22.9656 16.9107 22.9819 16.9086C22.9982 16.9065 23.0147 16.9076 23.0305 16.912C23.0464 16.9163 23.0612 16.9237 23.0741 16.9339C23.1391 16.9877 23.2464 17.067 23.2746 17.0897C23.3029 17.1123 23.3311 17.1605 23.3621 17.1746C23.4049 17.1844 23.4483 17.1911 23.492 17.1945C23.5109 17.1997 23.5282 17.2097 23.542 17.2236C23.5559 17.2375 23.5659 17.2548 23.5711 17.2738Z" fill="white"/>
<path d="M23.204 17.2823L23.1193 17.2398L23.173 17.2341C23.1823 17.2508 23.1927 17.2669 23.204 17.2823Z" fill="white"/>
<path d="M22.929 14.4548C22.9334 14.4281 22.9445 14.4029 22.9612 14.3816C22.9668 14.3674 22.9866 14.3419 22.9866 14.3419L23.269 14.5119V14.5657V14.7499L22.9358 14.5346C22.9269 14.509 22.9245 14.4816 22.929 14.4548Z" fill="white"/>
<path d="M19.8083 18.1777C19.822 18.168 19.8384 18.163 19.8551 18.1633L19.8806 18.1548L21.123 18.5768L20.8943 18.6958L19.8269 18.3219C19.8072 18.3137 19.7914 18.2983 19.7825 18.2789C19.7736 18.2595 19.7723 18.2374 19.7789 18.2171C19.7843 18.2012 19.7946 18.1874 19.8083 18.1777Z" fill="white"/>
<path d="M31.1075 6.17811C31.1807 6.14076 31.2506 6.09717 31.3165 6.04781L33.0869 9.63967C33.0238 9.68915 32.9505 9.72398 32.8723 9.74165C32.8216 9.66243 32.767 9.58585 32.7085 9.5122C32.6694 9.465 32.6326 9.41584 32.5984 9.3649L31.1075 6.17811Z" fill="white"/>
<path d="M33.0982 10.1807H33.214C33.2591 10.1855 33.3046 10.1846 33.3495 10.1779L33.5104 10.5036C33.4899 10.5106 33.4708 10.5211 33.454 10.5348L33.4173 10.5858C33.3965 10.6591 33.4025 10.7375 33.4342 10.8067C33.4527 10.8549 33.4641 10.9054 33.4681 10.9569C33.4624 10.9682 33.4483 10.9795 33.4173 10.9994L33.3749 11.0305L32.9739 10.1807C33.0153 10.1778 33.0568 10.1778 33.0982 10.1807Z" fill="white"/>
<path d="M22.3202 11.0815C22.3303 11.0784 22.3411 11.0784 22.3513 11.0815L20.674 9.72465C20.6595 9.70938 20.6514 9.68909 20.6514 9.668C20.6514 9.6469 20.6595 9.62662 20.674 9.61134C20.6812 9.60159 20.6905 9.59367 20.7013 9.58825C20.7121 9.58284 20.7241 9.58007 20.7361 9.58018C20.7545 9.57974 20.7725 9.58575 20.787 9.59718L23.2803 11.5489H23.2633L23.2181 11.6877L23.2323 11.716C23.2464 11.767 23.2492 11.7812 23.2323 11.8039L22.4557 11.1693C22.464 11.178 22.4699 11.1888 22.4727 11.2005L22.3202 11.0815Z" fill="white"/>
<path d="M31.0426 10.6453H31.0595C31.1016 10.6416 31.1424 10.6291 31.1794 10.6086C31.2163 10.5881 31.2486 10.5601 31.2741 10.5263L32.6238 12.6253L32.3414 12.767L31.0426 10.6453Z" fill="white"/>
<path d="M25.0281 13.0984L25.158 13.1947L25.1637 13.1805C25.1829 13.1759 25.2009 13.1672 25.2165 13.155C25.2321 13.1427 25.2449 13.1273 25.254 13.1097L27.8179 15.1181L27.4791 15.2937L24.373 12.7443C24.3779 12.723 24.3845 12.7022 24.3928 12.682C24.4405 12.6927 24.4862 12.7109 24.5283 12.7358C24.5907 12.7768 24.6628 12.8002 24.7373 12.8038H24.7938L24.8474 12.7896L25.0451 12.9539C25.027 12.9998 25.0211 13.0496 25.0281 13.0984Z" fill="white"/>
<path d="M51.9547 13.7726L52.3472 13.3902L52.3811 13.3278V13.342L52.4573 13.2684L52.5166 13.3817C52.5555 13.396 52.5966 13.4037 52.638 13.4043C52.6586 13.4073 52.6796 13.4073 52.7002 13.4043L51.7542 14.3759L51.6836 14.3391C51.7604 14.2836 51.8233 14.2109 51.8674 14.1269C51.9115 14.0428 51.9356 13.9497 51.9378 13.8547L51.9547 13.7726Z" fill="white"/>
<path d="M56.6364 12.495C56.6194 12.5432 56.6194 12.5885 56.6194 12.631L56.5545 12.6395C56.4397 12.6951 56.3167 12.7314 56.1902 12.7471L56.6364 12.4016V12.495Z" fill="white"/>
<path d="M56.3518 5.62584C56.3544 5.64678 56.3492 5.66795 56.3371 5.68522L55.0664 7.31686C55.0206 7.26436 54.9637 7.22275 54.8998 7.19505L56.21 5.58325C56.2177 5.57432 56.2272 5.56717 56.238 5.56228C56.2487 5.55739 56.2603 5.55488 56.2721 5.55492C56.2905 5.55448 56.3085 5.56049 56.3229 5.57192C56.3389 5.58567 56.3492 5.60489 56.3518 5.62584Z" fill="white"/>
<path d="M53.1632 15.1266L54.8857 13.7782L54.8942 13.7641C54.9082 13.7891 54.915 13.8175 54.9139 13.8462C54.9227 13.9283 54.9467 14.008 54.9845 14.0813L53.6376 15.1833L53.584 15.1294H53.4654C53.4342 15.1283 53.4032 15.1335 53.374 15.1447C53.3449 15.1559 53.3184 15.1728 53.296 15.1946L53.1632 15.1266Z" fill="white"/>
<path d="M55.4335 10.3507L55.4645 10.379L55.473 10.362C55.5065 10.397 55.5367 10.4349 55.5634 10.4753L54.6344 11.4271L54.592 11.3874H54.5186C54.4742 11.3888 54.4303 11.3974 54.3887 11.4129H54.3548L55.4335 10.3507Z" fill="white"/>
<path d="M53.7957 12.0701C53.7735 12.091 53.7489 12.109 53.7223 12.1239L53.7308 12.1069C53.6766 12.1311 53.6314 12.1717 53.6015 12.223C53.5716 12.2744 53.5585 12.3339 53.5642 12.3931L53.5924 12.4639L53.6122 12.4837L52.8216 13.2967C52.8187 13.2518 52.8082 13.2077 52.7905 13.1664L52.686 13.1041H52.6437L54.0809 11.6877C54.1588 11.7234 54.2438 11.7408 54.3294 11.7387L53.9934 12.0815C53.9689 12.0747 53.9452 12.0652 53.9228 12.0531L53.7957 12.0701Z" fill="white"/>
<path d="M55.5831 16.0869L55.4928 16.1464C55.4532 16.1265 55.4391 16.1124 55.4504 16.0784C55.4465 16.0695 55.4445 16.0598 55.4445 16.0501C55.4445 16.0403 55.4465 16.0307 55.4504 16.0217C55.4915 15.9902 55.5428 15.975 55.5944 15.9792H55.6086C55.5939 16.0134 55.5853 16.0498 55.5831 16.0869Z" fill="white"/>
<path d="M53.6489 9.14678L50.1984 13.5658L49.8595 13.3987L53.152 9.33374H53.2C53.2327 9.31545 53.2667 9.29936 53.3016 9.28558L53.2847 9.0788C53.2954 9.08179 53.3045 9.08892 53.3101 9.09862C53.3161 9.10577 53.3193 9.11479 53.3193 9.12412C53.3193 9.13332 53.3161 9.14222 53.3103 9.14932L54.2249 8.04486L54.2758 8.05902C54.3222 8.06495 54.3672 8.07935 54.4085 8.10152C54.4231 8.10987 54.4365 8.12037 54.448 8.13267L54.1826 8.46977C54.1541 8.46977 54.126 8.47642 54.1005 8.4892C54.075 8.50199 54.0529 8.52055 54.0358 8.54342V8.66522L53.7732 9.00231H53.6997L53.6856 9.22043C53.6774 9.21868 53.6698 9.21492 53.6634 9.20948C53.657 9.20404 53.652 9.1971 53.6489 9.18927C53.6437 9.17559 53.6437 9.16046 53.6489 9.14678Z" fill="white"/>
<path d="M65.2233 19.7499C65.2398 19.7613 65.2518 19.7783 65.2571 19.7977V19.8062C65.2593 19.8252 65.2548 19.8443 65.2445 19.8603C65.2342 19.8763 65.2187 19.8882 65.2006 19.894L63.3087 20.3501L63.0264 20.2028L65.1667 19.7354C65.1867 19.7334 65.2067 19.7385 65.2233 19.7499Z" fill="white"/>
<path d="M59.5532 10.3535L56.9724 12.4639C56.9865 12.3506 56.9893 12.2401 56.9131 12.1806L59.2116 10.3932H59.2341H59.2963C59.3287 10.3801 59.3576 10.3597 59.381 10.3337C59.412 10.2884 59.429 10.2884 59.4572 10.2884H59.4855C59.512 10.3056 59.535 10.3277 59.5532 10.3535Z" fill="white"/>
<path d="M61.1119 18.1293H61.1401C61.1565 18.1292 61.1724 18.134 61.186 18.1431C61.1996 18.1521 61.2102 18.1651 61.2164 18.1803C61.2228 18.2009 61.2211 18.2233 61.2117 18.2428C61.2022 18.2623 61.1857 18.2774 61.1655 18.2851L60.0728 18.6816L59.8412 18.5627L61.1119 18.1293Z" fill="white"/>
<path d="M60.0078 16.186H59.9175C59.8732 16.2093 59.8346 16.2422 59.8045 16.2823L57.5654 17.3899L57.2293 17.2171L61.7924 15.07H61.7755C61.7672 15.0726 61.7583 15.0726 61.75 15.07L61.9195 14.985C61.9174 14.9942 61.9133 15.0028 61.9074 15.0101C61.9015 15.0175 61.8941 15.0234 61.8856 15.0275L63.2579 14.3844H63.2918C63.3071 14.3841 63.3222 14.3881 63.3352 14.3962C63.3482 14.4042 63.3586 14.4159 63.3652 14.4298C63.37 14.4392 63.3728 14.4495 63.3736 14.4601C63.3743 14.4707 63.3729 14.4813 63.3695 14.4914C63.3661 14.5014 63.3607 14.5106 63.3536 14.5186C63.3466 14.5265 63.338 14.5329 63.3285 14.5374L60.0078 16.186Z" fill="white"/>
<path d="M57.6783 14.5119L58.9659 13.7159C58.9769 13.7031 58.9918 13.6942 59.0083 13.6904C59.0221 13.6903 59.0358 13.6936 59.0481 13.7C59.0604 13.7064 59.071 13.7158 59.0788 13.7273C59.0896 13.7454 59.0929 13.767 59.0882 13.7876C59.0835 13.8082 59.071 13.8261 59.0534 13.8377L58.1725 14.4043H58.1499H58.1047C58.0694 14.4057 58.0351 14.4158 58.0046 14.4336C57.9741 14.4513 57.9484 14.4763 57.9296 14.5062C57.8901 14.5487 57.8647 14.5742 57.8167 14.5742H57.7828C57.745 14.5588 57.7098 14.5378 57.6783 14.5119Z" fill="white"/>
<path d="M22.5461 14.0445L22.5254 14.0575L22.7014 14.1635C22.6786 14.1879 22.6614 14.217 22.6512 14.2489C22.6409 14.2807 22.6378 14.3144 22.6421 14.3476L21.939 13.8944C21.9246 13.8846 21.9136 13.8704 21.9078 13.8539C21.902 13.8374 21.9015 13.8194 21.9066 13.8027C21.9116 13.7859 21.9219 13.7712 21.9358 13.7607C21.9498 13.7502 21.9667 13.7444 21.9842 13.7442C21.9972 13.7414 22.0107 13.7414 22.0237 13.7442L22.391 13.9787C22.3856 13.9746 22.3814 13.9692 22.3787 13.963C22.3751 13.9548 22.3744 13.9456 22.3767 13.9369L22.5461 14.0445Z" fill="white"/>
<path d="M31.1301 5.68522C31.0338 5.64575 30.9334 5.61724 30.8308 5.60024L29.4415 2.61175C29.4328 2.59218 29.4321 2.56997 29.4395 2.54986C29.4468 2.52975 29.4618 2.51333 29.4811 2.5041C29.4922 2.50155 29.5038 2.50155 29.5149 2.5041C29.5302 2.50406 29.5451 2.50828 29.5581 2.51629C29.571 2.5243 29.5815 2.53577 29.5884 2.54943L31.1301 5.68522Z" fill="white"/>
<path d="M47.7841 4.78443L45.624 11.2062L45.3642 11.0673L47.643 4.73344C47.6483 4.71752 47.6586 4.70373 47.6723 4.69406C47.686 4.68438 47.7024 4.67933 47.7192 4.67962H47.7333C47.7435 4.68312 47.753 4.68862 47.761 4.69579C47.7691 4.70296 47.7757 4.71167 47.7805 4.72141C47.7852 4.73115 47.7879 4.74174 47.7886 4.75255C47.7892 4.76337 47.7877 4.7742 47.7841 4.78443Z" fill="white"/>
<path d="M30.7122 9.651L30.6585 9.67083H30.6529C30.616 9.72298 30.5892 9.78158 30.5738 9.84362L30.4439 9.62834C30.4862 9.62354 30.5288 9.62354 30.571 9.62834C30.618 9.62553 30.6652 9.62553 30.7122 9.62834V9.651Z" fill="white"/>
<path d="M36.7831 8.95982C36.7625 8.92786 36.7482 8.89231 36.7407 8.85501L36.7859 8.86068H36.8424L36.8904 8.82952L36.9214 8.95982C36.9102 8.98532 36.8989 9.00515 36.8791 9.00515C36.8689 9.00767 36.8582 9.00767 36.848 9.00515C36.8396 9.00515 36.8113 9.00515 36.7831 8.95982Z" fill="white"/>
<path d="M40.4411 0.0240607C40.4565 0.00865488 40.4773 0 40.499 0C40.5201 0.000657322 40.5401 0.00914282 40.5553 0.0238043C40.5704 0.0384658 40.5795 0.0582538 40.5809 0.0793155L40.6769 8.70488C40.62 8.69515 40.5624 8.68947 40.5047 8.68788C40.4469 8.68933 40.3894 8.69501 40.3325 8.70488V8.09585L40.4652 8.06186C40.468 8.04308 40.468 8.02398 40.4652 8.0052C40.462 7.98077 40.4553 7.95692 40.4454 7.93439L40.3353 7.88056L40.3579 5.84102C40.3823 5.85334 40.4096 5.85919 40.4369 5.85802L40.5471 5.77587C40.5543 5.75239 40.5565 5.72765 40.5536 5.70325C40.5506 5.67885 40.5427 5.65534 40.5301 5.63424C40.5133 5.60503 40.489 5.58093 40.4596 5.56447C40.4303 5.54802 40.3971 5.53982 40.3635 5.54076L40.3776 4.04509C40.3951 4.01601 40.4043 3.98271 40.4043 3.94878C40.4043 3.91485 40.3951 3.88155 40.3776 3.85247L40.4172 0.0821482C40.4172 0.0603612 40.4258 0.0394664 40.4411 0.0240607Z" fill="white"/>
<path d="M45.6268 3.21794L45.6579 3.28593L44.1049 10.4243L43.766 10.2487L43.8733 9.89461L43.9581 9.73315L43.9185 9.70765L44.9294 5.45861C44.9462 5.46131 44.9634 5.46131 44.9802 5.45861L45.0791 5.40479C45.0989 5.36939 45.1117 5.3304 45.1165 5.29005C45.1214 5.24971 45.1182 5.2088 45.1073 5.16967C45.0964 5.11935 45.0672 5.0749 45.0254 5.04503L45.5563 2.82137C45.5789 2.79703 45.6057 2.77689 45.6353 2.76188L45.6974 2.69106L45.6099 2.59475V2.54943L45.7454 2.61458L45.785 2.59192L45.8189 2.54943L45.7116 3.04232C45.6675 3.09175 45.6381 3.1526 45.6268 3.21794Z" fill="white"/>
<path d="M42.8647 3.60612C42.8798 3.59309 42.899 3.586 42.9189 3.5862C42.9318 3.58477 42.9448 3.58631 42.9569 3.59069C42.969 3.59508 42.98 3.60218 42.989 3.61148C42.998 3.62077 43.0048 3.632 43.0088 3.64431C43.0128 3.65662 43.0139 3.66968 43.0121 3.68251L42.4304 9.54619L42.1481 9.40456L42.8371 3.65701C42.8398 3.63724 42.8496 3.61915 42.8647 3.60612Z" fill="white"/>
<path d="M30.3197 9.18644C30.2576 9.16378 30.2124 9.14678 30.2124 9.10429H30.235C30.2467 9.07345 30.2599 9.0432 30.2745 9.01364L30.4157 9.23459C30.3868 9.21302 30.3543 9.19672 30.3197 9.18644Z" fill="white"/>
<path d="M52.1665 6.92878L51.5792 7.8919L51.39 7.87207L52.031 6.8523C52.0382 6.84087 52.0482 6.83148 52.0601 6.82504C52.0719 6.81859 52.0852 6.8153 52.0987 6.81547C52.1127 6.81257 52.1271 6.81257 52.1411 6.81547C52.1505 6.82096 52.1586 6.82833 52.165 6.83712C52.1714 6.84592 52.176 6.85594 52.1784 6.86657C52.1808 6.8772 52.1809 6.88822 52.1789 6.89892C52.1768 6.90962 52.1726 6.91979 52.1665 6.92878Z" fill="white"/>
<path d="M51.5537 2.63158L47.1742 12.0078L46.8382 11.835L51.4097 2.56076C51.4158 2.54711 51.4257 2.53555 51.4383 2.52749C51.4508 2.51944 51.4654 2.51525 51.4803 2.51544C51.4939 2.51562 51.5073 2.51921 51.5192 2.52587C51.531 2.53253 51.5411 2.54205 51.5484 2.55358C51.5556 2.56511 51.56 2.57828 51.5609 2.59189C51.5618 2.60551 51.5594 2.61915 51.5537 2.63158Z" fill="white"/>
<path d="M48.3573 12.6112L50.8987 8.64539H50.9241C50.9815 8.67433 51.0409 8.69895 51.102 8.71904L48.6397 12.7528L48.3573 12.6112Z" fill="white"/>
<path d="M42.2243 42.2582L42.1481 41.6407L42.4191 41.499L42.4841 42.1505C42.4677 42.1683 42.4526 42.1872 42.4389 42.2072L42.3599 42.2752C42.3161 42.2612 42.2701 42.2554 42.2243 42.2582Z" fill="white"/>
<path d="M38.5648 42.2723L38.4773 42.1307L38.5309 41.4962L38.8133 41.635L38.7258 42.3347C38.7201 42.3517 38.7032 42.3517 38.7032 42.3517C38.6399 42.3656 38.5744 42.3656 38.5112 42.3517C38.5359 42.3306 38.5545 42.3032 38.5648 42.2723Z" fill="white"/>
<path d="M31.0764 40.3971H31.0595L32.3499 38.2697L32.6323 38.4114L31.2826 40.5132C31.2586 40.4801 31.2278 40.4525 31.1922 40.4325C31.1566 40.4124 31.1171 40.4004 31.0764 40.3971Z" fill="white"/>
<path d="M33.4342 40.2526C33.4025 40.3219 33.3965 40.4003 33.4173 40.4736L33.4512 40.5217C33.468 40.5354 33.4871 40.546 33.5076 40.5529L33.3467 40.8787C33.3054 40.8738 33.2637 40.8738 33.2224 40.8787H33.0982C33.0568 40.8816 33.0153 40.8816 32.9739 40.8787L33.3749 40.0289L33.4173 40.06C33.4483 40.0798 33.4681 40.1025 33.4681 40.1025C33.4641 40.1539 33.4527 40.2045 33.4342 40.2526Z" fill="white"/>
<path d="M24.4041 38.3604C24.3958 38.3402 24.3892 38.3193 24.3843 38.2981L27.4875 35.7543L27.8264 35.9299L25.2625 37.9383C25.2531 37.9187 25.2393 37.9016 25.2222 37.8883C25.205 37.875 25.185 37.8659 25.1637 37.8618L25.0338 37.9581C25.0268 38.007 25.0326 38.0568 25.0507 38.1026L24.8587 38.2527L24.805 38.2386H24.7486C24.6741 38.2421 24.602 38.2656 24.5396 38.3066C24.4981 38.3327 24.4522 38.3509 24.4041 38.3604Z" fill="white"/>
<path d="M29.2156 36.6608L29.498 36.7996L28.8514 37.4143C28.8016 37.3858 28.747 37.3667 28.6904 37.3576C28.6791 37.3123 28.6509 37.267 28.6509 37.2273L29.2156 36.6608Z" fill="white"/>
<path d="M27.7106 38.4085C27.7415 38.413 27.7729 38.413 27.8038 38.4085L27.801 38.4199V38.4624L26.9849 39.264C26.9663 39.261 26.9483 39.2552 26.9313 39.247C26.9299 39.2395 26.9299 39.2319 26.9313 39.2244C26.9123 39.1696 26.8963 39.1138 26.8833 39.0572L27.5807 38.3462L27.64 38.3802L27.7106 38.4085Z" fill="white"/>
<path d="M47.4425 39.8249C47.4425 39.8248 47.4425 39.8246 47.4425 39.8245C47.367 39.8209 47.2913 39.8249 47.2166 39.8362H47.129L46.8241 39.2159L47.1601 39.0402L47.4425 39.6464C47.451 39.7055 47.451 39.7654 47.4425 39.8245C47.4453 39.8246 47.4481 39.8247 47.4509 39.8249H47.4425Z" fill="white"/>
<path d="M24.4408 35.8081V35.7911L24.39 35.7175C24.3559 35.6959 24.3254 35.6692 24.2996 35.6382L25.6098 34.7884L25.8752 34.9272L24.4408 35.8081Z" fill="white"/>
</svg>
