<svg width="95" height="112" viewBox="0 0 95 112" fill="none" xmlns="http://www.w3.org/2000/svg">
<path d="M89.58 56.5393C92.4663 53.7151 94.2095 49.8588 94.4564 45.7516C94.7034 41.6444 93.4356 37.5933 90.91 34.4193L67.36 7.70518C66.6791 5.47385 65.3318 3.52481 63.5126 2.13975C61.6935 0.754681 59.4968 0.00533263 57.24 0L45.46 0C42.2868 0.00564292 39.245 1.31442 37 3.64L34.49 6.22222C33.7002 7.03827 33.0736 8.00799 32.646 9.07574C32.2185 10.1435 31.9984 11.2883 31.9984 12.4444C31.9984 13.6006 32.2185 14.7454 32.646 15.8131C33.0736 16.8809 33.7002 17.8506 34.49 18.6667L36.49 20.7407C38.0819 22.3898 40.2399 23.316 42.49 23.316C44.74 23.316 46.8981 22.3898 48.49 20.7407L56.49 24.8889V53.9259H45.43C43.4804 53.9268 41.5512 54.337 39.7587 55.1319C37.9662 55.9268 36.3474 57.0899 35 58.5511C30.7624 55.4447 25.6784 53.8242 20.49 53.9259C12.49 53.9259 5.68999 57.317 2.48999 62.2222V112C11.62 112 19.66 109.926 25.12 105.778H37.54C40.2367 105.786 42.8822 105.014 45.1788 103.549C47.4755 102.083 49.3322 99.9819 50.54 97.4815C60.17 97.4815 70.29 88.8222 73.96 79.9452C76.3565 80.9695 79.0074 81.1659 81.52 80.5052C83.5779 79.9574 85.4586 78.8529 86.97 77.3045C88.4815 75.7561 89.5694 73.8193 90.1226 71.692C90.6759 69.5648 90.6746 67.3233 90.119 65.1968C89.5633 63.0702 88.4732 61.1347 86.96 59.5881C87.7703 58.5154 88.6454 57.4971 89.58 56.5393Z" fill="#FF0000"/>
<path d="M20.49 31.1111C21.5946 31.1111 22.49 30.1825 22.49 29.037C22.49 27.8915 21.5946 26.963 20.49 26.963C19.3854 26.963 18.49 27.8915 18.49 29.037C18.49 30.1825 19.3854 31.1111 20.49 31.1111Z" fill="#FF0000"/>
<path d="M20.49 43.5556C19.9596 43.5556 19.4508 43.3371 19.0758 42.9481C18.7007 42.5591 18.49 42.0316 18.49 41.4815V37.3334C18.49 36.7833 18.7007 36.2557 19.0758 35.8668C19.4508 35.4778 19.9596 35.2593 20.49 35.2593C21.0204 35.2593 21.5291 35.4778 21.9042 35.8668C22.2793 36.2557 22.49 36.7833 22.49 37.3334V41.4815C22.49 42.0316 22.2793 42.5591 21.9042 42.9481C21.5291 43.3371 21.0204 43.5556 20.49 43.5556Z" fill="#FF0000"/>
<path d="M38.97 36.8252C40.0745 36.8252 40.97 35.8966 40.97 34.7511C40.97 33.6057 40.0745 32.6771 38.97 32.6771C37.8654 32.6771 36.97 33.6057 36.97 34.7511C36.97 35.8966 37.8654 36.8252 38.97 36.8252Z" fill="#FF0000"/>
<path d="M30.4901 45.6296C30.0949 45.63 29.7085 45.5089 29.3796 45.2816C29.0507 45.0544 28.7941 44.7312 28.6422 44.3529C28.4903 43.9746 28.4499 43.558 28.526 43.1559C28.6022 42.7537 28.7915 42.384 29.0701 42.0934L31.9001 39.1585C32.0859 38.9658 32.3065 38.813 32.5493 38.7087C32.7921 38.6044 33.0523 38.5507 33.3151 38.5507C33.5779 38.5507 33.8381 38.6044 34.0809 38.7087C34.3237 38.813 34.5443 38.9658 34.7301 39.1585C34.9159 39.3512 35.0633 39.58 35.1639 39.8318C35.2645 40.0836 35.3162 40.3534 35.3162 40.6259C35.3162 40.8985 35.2645 41.1683 35.1639 41.4201C35.0633 41.6719 34.9159 41.9007 34.7301 42.0934L31.9001 45.0178C31.5268 45.4073 31.0197 45.6273 30.4901 45.6296Z" fill="#FF0000"/>
<path d="M2 36.8252C3.10457 36.8252 4 35.8966 4 34.7511C4 33.6057 3.10457 32.6771 2 32.6771C0.89543 32.6771 0 33.6057 0 34.7511C0 35.8966 0.89543 36.8252 2 36.8252Z" fill="#FF0000"/>
<path d="M10.4899 45.6296C10.226 45.6299 9.96467 45.5759 9.72095 45.4709C9.47724 45.3659 9.25598 45.2119 9.06992 45.0178L6.23992 42.0934C5.86464 41.7042 5.65381 41.1763 5.65381 40.6259C5.65381 40.0756 5.86464 39.5477 6.23992 39.1585C6.6152 38.7694 7.12419 38.5507 7.65492 38.5507C8.18565 38.5507 8.69464 38.7694 9.06992 39.1585L11.8999 42.0934C12.1779 42.3834 12.3671 42.7522 12.4436 43.1533C12.52 43.5545 12.4804 43.9702 12.3298 44.3481C12.1791 44.726 11.924 45.0493 11.5967 45.2773C11.2693 45.5054 10.8843 45.6279 10.4899 45.6296Z" fill="#FF0000"/>
</svg>
