<svg width="112" height="112" viewBox="0 0 112 112" fill="none" xmlns="http://www.w3.org/2000/svg">
<path d="M92 50.9091C91.7289 50.9094 91.4606 50.8536 91.2114 50.7451C90.9621 50.6366 90.7371 50.4776 90.55 50.2778L60.05 15.4356C59.6854 15.0373 59.491 14.5078 59.5098 13.9636C59.5285 13.4194 59.7588 12.9051 60.15 12.5338C60.5412 12.1625 61.0613 11.9647 61.5958 11.9837C62.1302 12.0028 62.6354 12.2373 63 12.6356L93.5 47.4676C93.7735 47.7594 93.9557 48.1273 94.0235 48.5246C94.0914 48.9219 94.0418 49.3308 93.8812 49.6995C93.7205 50.0681 93.4559 50.3798 93.121 50.5952C92.7861 50.8105 92.396 50.9198 92 50.9091Z" fill="#FF0000"/>
<path d="M19.9999 50.9091C19.6082 50.9096 19.225 50.7929 18.8979 50.5736C18.5707 50.3544 18.314 50.0421 18.1596 49.6756C18.0051 49.3091 17.9598 48.9044 18.0292 48.5119C18.0986 48.1194 18.2797 47.7563 18.5499 47.4676L49.0499 12.6356C49.2305 12.4384 49.4475 12.2793 49.6884 12.1675C49.9294 12.0556 50.1896 11.9932 50.4542 11.9837C50.7189 11.9743 50.9828 12.018 51.2308 12.1124C51.4789 12.2068 51.7062 12.35 51.8999 12.5338C52.0936 12.7177 52.2499 12.9386 52.3597 13.1839C52.4696 13.4292 52.5309 13.6942 52.5402 13.9636C52.5495 14.2331 52.5066 14.5018 52.4139 14.7544C52.3212 15.0069 52.1805 15.2384 51.9999 15.4356L21.4499 50.2778C21.2629 50.4776 21.0379 50.6366 20.7886 50.7451C20.5394 50.8536 20.271 50.9094 19.9999 50.9091Z" fill="#FF0000"/>
<path d="M56 0C54.4178 0 52.871 0.477723 51.5554 1.37276C50.2399 2.26779 49.2145 3.53994 48.609 5.02832C48.0035 6.51671 47.845 8.15449 48.1537 9.73455C48.4624 11.3146 49.2243 12.766 50.3432 13.9052C51.462 15.0443 52.8874 15.8201 54.4393 16.1344C55.9911 16.4487 57.5997 16.2874 59.0615 15.6709C60.5233 15.0544 61.7727 14.0103 62.6518 12.6708C63.5308 11.3313 64 9.75647 64 8.14545C64 5.98515 63.1571 3.91332 61.6569 2.38575C60.1566 0.858179 58.1217 0 56 0V0ZM56 10.1818C55.6044 10.1818 55.2178 10.0624 54.8889 9.83863C54.56 9.61487 54.3036 9.29683 54.1522 8.92474C54.0009 8.55264 53.9613 8.1432 54.0384 7.74818C54.1156 7.35316 54.3061 6.99032 54.5858 6.70553C54.8655 6.42074 55.2219 6.22679 55.6098 6.14822C55.9978 6.06965 56.3999 6.10997 56.7654 6.2641C57.1308 6.41823 57.4432 6.67923 57.6629 7.01411C57.8827 7.34899 58 7.7427 58 8.14545C58 8.68553 57.7893 9.20349 57.4142 9.58538C57.0391 9.96727 56.5304 10.1818 56 10.1818Z" fill="#FF0000"/>
<path d="M0 46.8364V112H112V46.8364H0ZM8 54.9818C8.39556 54.9818 8.78224 55.1012 9.11114 55.325C9.44004 55.5488 9.69638 55.8668 9.84776 56.2389C9.99913 56.611 10.0387 57.0204 9.96157 57.4155C9.8844 57.8105 9.69392 58.1733 9.41421 58.4581C9.13451 58.7429 8.77814 58.9368 8.39018 59.0154C8.00222 59.094 7.60009 59.0537 7.23463 58.8995C6.86918 58.7454 6.55682 58.4844 6.33706 58.1495C6.1173 57.8146 6 57.4209 6 57.0182C6 56.4781 6.21071 55.9601 6.58579 55.5783C6.96086 55.1964 7.46957 54.9818 8 54.9818ZM8 103.855C7.60444 103.855 7.21776 103.735 6.88886 103.511C6.55996 103.288 6.30362 102.97 6.15224 102.597C6.00087 102.225 5.96126 101.816 6.03843 101.421C6.1156 101.026 6.30608 100.663 6.58579 100.378C6.86549 100.093 7.22186 99.8995 7.60982 99.8209C7.99778 99.7424 8.39991 99.7827 8.76537 99.9368C9.13082 100.091 9.44318 100.352 9.66294 100.687C9.8827 101.022 10 101.415 10 101.818C10 102.358 9.78929 102.876 9.41421 103.258C9.03914 103.64 8.53043 103.855 8 103.855ZM15 77.3818C16.3845 77.3818 17.7378 77.7998 18.889 78.583C20.0401 79.3661 20.9373 80.4793 21.4672 81.7816C21.997 83.0839 22.1356 84.517 21.8655 85.8996C21.5954 87.2821 20.9287 88.5521 19.9497 89.5488C18.9708 90.5456 17.7235 91.2244 16.3656 91.4994C15.0078 91.7744 13.6003 91.6333 12.3212 91.0938C11.0421 90.5544 9.94888 89.6409 9.17971 88.4688C8.41054 87.2967 8 85.9187 8 84.5091C8 83.969 8.21071 83.4511 8.58579 83.0692C8.96086 82.6873 9.46957 82.4727 10 82.4727C10.5304 82.4727 11.0391 82.6873 11.4142 83.0692C11.7893 83.4511 12 83.969 12 84.5091C12 85.1132 12.1759 85.7038 12.5056 86.2061C12.8352 86.7084 13.3038 87.0999 13.8519 87.3311C14.4001 87.5623 15.0033 87.6228 15.5853 87.5049C16.1672 87.3871 16.7018 87.0962 17.1213 86.669C17.5409 86.2418 17.8266 85.6975 17.9424 85.105C18.0581 84.5125 17.9987 83.8983 17.7716 83.3402C17.5446 82.782 17.1601 82.305 16.6667 81.9693C16.1734 81.6337 15.5933 81.4545 15 81.4545C13.6155 81.4545 12.2622 81.0365 11.111 80.2534C9.95986 79.4702 9.06266 78.3571 8.53284 77.0548C8.00303 75.7524 7.86441 74.3194 8.1345 72.9368C8.4046 71.5543 9.07129 70.2843 10.0503 69.2875C11.0292 68.2908 12.2765 67.612 13.6344 67.337C14.9922 67.0619 16.3997 67.2031 17.6788 67.7425C18.9579 68.282 20.0511 69.1955 20.8203 70.3676C21.5895 71.5396 22 72.9176 22 74.3273C22 74.8674 21.7893 75.3853 21.4142 75.7672C21.0391 76.1491 20.5304 76.3636 20 76.3636C19.4696 76.3636 18.9609 76.1491 18.5858 75.7672C18.2107 75.3853 18 74.8674 18 74.3273C18 73.7231 17.8241 73.1326 17.4944 72.6303C17.1648 72.1279 16.6962 71.7364 16.1481 71.5052C15.5999 71.2741 14.9967 71.2136 14.4147 71.3314C13.8328 71.4493 13.2982 71.7402 12.8787 72.1674C12.4591 72.5946 12.1734 73.1388 12.0576 73.7314C11.9419 74.3239 12.0013 74.938 12.2284 75.4962C12.4554 76.0543 12.8399 76.5314 13.3333 76.867C13.8266 77.2027 14.4067 77.3818 15 77.3818ZM42 89.6C42 90.1401 41.7893 90.658 41.4142 91.0399C41.0391 91.4218 40.5304 91.6364 40 91.6364C39.4696 91.6364 38.9609 91.4218 38.5858 91.0399C38.2107 90.658 38 90.1401 38 89.6V83.4909H32V89.6C32 90.1401 31.7893 90.658 31.4142 91.0399C31.0391 91.4218 30.5304 91.6364 30 91.6364C29.4696 91.6364 28.9609 91.4218 28.5858 91.0399C28.2107 90.658 28 90.1401 28 89.6V74.3273C28 72.437 28.7375 70.6242 30.0503 69.2875C31.363 67.9509 33.1435 67.2 35 67.2C36.8565 67.2 38.637 67.9509 39.9497 69.2875C41.2625 70.6242 42 72.437 42 74.3273V89.6ZM62 84.5091C62 86.3994 61.2625 88.2122 59.9497 89.5488C58.637 90.8855 56.8565 91.6364 55 91.6364C53.1435 91.6364 51.363 90.8855 50.0503 89.5488C48.7375 88.2122 48 86.3994 48 84.5091V69.2364C48 68.6963 48.2107 68.1783 48.5858 67.7964C48.9609 67.4145 49.4696 67.2 50 67.2C50.5304 67.2 51.0391 67.4145 51.4142 67.7964C51.7893 68.1783 52 68.6963 52 69.2364V84.5091C52 85.3192 52.3161 86.0961 52.8787 86.669C53.4413 87.2418 54.2043 87.5636 55 87.5636C55.7957 87.5636 56.5587 87.2418 57.1213 86.669C57.6839 86.0961 58 85.3192 58 84.5091V69.2364C58 68.6963 58.2107 68.1783 58.5858 67.7964C58.9609 67.4145 59.4696 67.2 60 67.2C60.5304 67.2 61.0391 67.4145 61.4142 67.7964C61.7893 68.1783 62 68.6963 62 69.2364V84.5091ZM82 89.6C82.0123 90.0679 81.8659 90.5259 81.5854 90.8968C81.3049 91.2677 80.9075 91.5289 80.46 91.6364C80.307 91.6514 80.153 91.6514 80 91.6364C79.6279 91.6362 79.2633 91.5303 78.947 91.3306C78.6308 91.131 78.3756 90.8455 78.21 90.5062L72 77.8604V89.6C72 90.1401 71.7893 90.658 71.4142 91.0399C71.0391 91.4218 70.5304 91.6364 70 91.6364C69.4696 91.6364 68.9609 91.4218 68.5858 91.0399C68.2107 90.658 68 90.1401 68 89.6V69.2364C68.0005 68.7776 68.1531 68.3324 68.4331 67.973C68.7131 67.6136 69.1041 67.361 69.5428 67.2561C69.9814 67.1512 70.442 67.2002 70.8499 67.3952C71.2577 67.5901 71.589 67.9196 71.79 68.3302L78 80.976V69.2364C78 68.6963 78.2107 68.1783 78.5858 67.7964C78.9609 67.4145 79.4696 67.2 80 67.2C80.5304 67.2 81.0391 67.4145 81.4142 67.7964C81.7893 68.1783 82 68.6963 82 69.2364V89.6ZM100 91.6364C99.4696 91.6364 98.9609 91.4218 98.5858 91.0399C98.2107 90.658 98 90.1401 98 89.6V83.4909H92V89.6C92 90.1401 91.7893 90.658 91.4142 91.0399C91.0391 91.4218 90.5304 91.6364 90 91.6364C89.4696 91.6364 88.9609 91.4218 88.5858 91.0399C88.2107 90.658 88 90.1401 88 89.6V74.3273C88 72.437 88.7375 70.6242 90.0503 69.2875C91.363 67.9509 93.1435 67.2 95 67.2C96.8565 67.2 98.637 67.9509 99.9497 69.2875C101.262 70.6242 102 72.437 102 74.3273V89.6C102 90.1401 101.789 90.658 101.414 91.0399C101.039 91.4218 100.53 91.6364 100 91.6364ZM104 103.855C103.604 103.855 103.218 103.735 102.889 103.511C102.56 103.288 102.304 102.97 102.152 102.597C102.001 102.225 101.961 101.816 102.038 101.421C102.116 101.026 102.306 100.663 102.586 100.378C102.865 100.093 103.222 99.8995 103.61 99.8209C103.998 99.7424 104.4 99.7827 104.765 99.9368C105.131 100.091 105.443 100.352 105.663 100.687C105.883 101.022 106 101.415 106 101.818C106 102.358 105.789 102.876 105.414 103.258C105.039 103.64 104.53 103.855 104 103.855ZM104 59.0545C103.604 59.0545 103.218 58.9351 102.889 58.7114C102.56 58.4876 102.304 58.1696 102.152 57.7975C102.001 57.4254 101.961 57.0159 102.038 56.6209C102.116 56.2259 102.306 55.863 102.586 55.5783C102.865 55.2935 103.222 55.0995 103.61 55.0209C103.998 54.9424 104.4 54.9827 104.765 55.1368C105.131 55.291 105.443 55.552 105.663 55.8868C105.883 56.2217 106 56.6154 106 57.0182C106 57.5583 105.789 58.0762 105.414 58.4581C105.039 58.84 104.53 59.0545 104 59.0545Z" fill="#FF0000"/>
<path d="M35 73.3091C34.2044 73.3091 33.4413 73.6309 32.8787 74.2037C32.3161 74.7766 32 75.5535 32 76.3636V79.4182H38V76.3636C38 75.5535 37.6839 74.7766 37.1213 74.2037C36.5587 73.6309 35.7956 73.3091 35 73.3091Z" fill="#FF0000"/>
<path d="M95 73.3091C94.2044 73.3091 93.4413 73.6309 92.8787 74.2037C92.3161 74.7766 92 75.5535 92 76.3636V79.4182H98V76.3636C98 75.5535 97.6839 74.7766 97.1213 74.2037C96.5587 73.6309 95.7956 73.3091 95 73.3091Z" fill="#FF0000"/>
</svg>
