<svg width="120" height="112" viewBox="0 0 120 112" fill="none" xmlns="http://www.w3.org/2000/svg">
<path d="M78 112H42C40.9391 112 39.9217 111.579 39.1716 110.828C38.4214 110.078 38 109.061 38 108V4C38 2.93913 38.4214 1.92172 39.1716 1.17157C39.9217 0.421427 40.9391 0 42 0C43.0609 0 44.0783 0.421427 44.8284 1.17157C45.5786 1.92172 46 2.93913 46 4V104H74V4C74 2.93913 74.4214 1.92172 75.1716 1.17157C75.9217 0.421427 76.9391 0 78 0C79.0609 0 80.0783 0.421427 80.8284 1.17157C81.5786 1.92172 82 2.93913 82 4V108C82 109.061 81.5786 110.078 80.8284 110.828C80.0783 111.579 79.0609 112 78 112Z" fill="#FF0600"/>
<path d="M88 112H32C32 109.878 32.8429 107.843 34.3431 106.343C35.8434 104.843 37.8783 104 40 104H80C82.1217 104 84.1566 104.843 85.6569 106.343C87.1571 107.843 88 109.878 88 112Z" fill="#FF0600"/>
<path d="M30 24C28.9391 24 27.9217 23.5786 27.1716 22.8284C26.4214 22.0783 26 21.0609 26 20V8C26 6.93913 26.4214 5.92172 27.1716 5.17157C27.9217 4.42143 28.9391 4 30 4C31.0609 4 32.0783 4.42143 32.8284 5.17157C33.5786 5.92172 34 6.93913 34 8V20C34 21.0609 33.5786 22.0783 32.8284 22.8284C32.0783 23.5786 31.0609 24 30 24Z" fill="#FF0600"/>
<path d="M90 24C88.9391 24 87.9217 23.5786 87.1716 22.8284C86.4214 22.0783 86 21.0609 86 20V8C86 6.93913 86.4214 5.92172 87.1716 5.17157C87.9217 4.42143 88.9391 4 90 4C91.0609 4 92.0783 4.42143 92.8284 5.17157C93.5786 5.92172 94 6.93913 94 8V20C94 21.0609 93.5786 22.0783 92.8284 22.8284C92.0783 23.5786 91.0609 24 90 24Z" fill="#FF0600"/>
<path d="M100 10H96V18H100V10Z" fill="#FF0600"/>
<path d="M24 10H20V18H24V10Z" fill="#FF0600"/>
<path d="M84 10H36V18H84V10Z" fill="#FF0600"/>
<path d="M96 40H24V48H96V40Z" fill="#FF0600"/>
<path d="M112 54C110.939 54 109.922 53.5786 109.172 52.8284C108.421 52.0783 108 51.0609 108 50V38C108 36.9391 108.421 35.9217 109.172 35.1716C109.922 34.4214 110.939 34 112 34C113.061 34 114.078 34.4214 114.828 35.1716C115.579 35.9217 116 36.9391 116 38V50C116 51.0609 115.579 52.0783 114.828 52.8284C114.078 53.5786 113.061 54 112 54Z" fill="#FF0600"/>
<path d="M102 58C100.939 58 99.9217 57.5786 99.1716 56.8284C98.4214 56.0783 98 55.0609 98 54V34C98 32.9391 98.4214 31.9217 99.1716 31.1716C99.9217 30.4214 100.939 30 102 30C103.061 30 104.078 30.4214 104.828 31.1716C105.579 31.9217 106 32.9391 106 34V54C106 55.0609 105.579 56.0783 104.828 56.8284C104.078 57.5786 103.061 58 102 58Z" fill="#FF0600"/>
<path d="M8 54C9.06087 54 10.0783 53.5786 10.8284 52.8284C11.5786 52.0783 12 51.0609 12 50V38C12 36.9391 11.5786 35.9217 10.8284 35.1716C10.0783 34.4214 9.06087 34 8 34C6.93913 34 5.92172 34.4214 5.17157 35.1716C4.42143 35.9217 4 36.9391 4 38V50C4 51.0609 4.42143 52.0783 5.17157 52.8284C5.92172 53.5786 6.93913 54 8 54Z" fill="#FF0600"/>
<path d="M18 58C19.0609 58 20.0783 57.5786 20.8284 56.8284C21.5786 56.0783 22 55.0609 22 54V34C22 32.9391 21.5786 31.9217 20.8284 31.1716C20.0783 30.4214 19.0609 30 18 30C16.9391 30 15.9217 30.4214 15.1716 31.1716C14.4214 31.9217 14 32.9391 14 34V54C14 55.0609 14.4214 56.0783 15.1716 56.8284C15.9217 57.5786 16.9391 58 18 58Z" fill="#FF0600"/>
<path d="M90 80H30V88H90V80Z" fill="#FF0600"/>
<path d="M116 94C114.939 94 113.922 93.5786 113.172 92.8284C112.421 92.0783 112 91.0609 112 90V78C112 76.9391 112.421 75.9217 113.172 75.1716C113.922 74.4214 114.939 74 116 74C117.061 74 118.078 74.4214 118.828 75.1716C119.579 75.9217 120 76.9391 120 78V90C120 91.0609 119.579 92.0783 118.828 92.8284C118.078 93.5786 117.061 94 116 94Z" fill="#FF0600"/>
<path d="M106 98C104.939 98 103.922 97.5786 103.172 96.8284C102.421 96.0783 102 95.0609 102 94V74C102 72.9391 102.421 71.9217 103.172 71.1716C103.922 70.4214 104.939 70 106 70C107.061 70 108.078 70.4214 108.828 71.1716C109.579 71.9217 110 72.9391 110 74V94C110 95.0609 109.579 96.0783 108.828 96.8284C108.078 97.5786 107.061 98 106 98Z" fill="#FF0600"/>
<path d="M96 102C94.9391 102 93.9217 101.579 93.1716 100.828C92.4214 100.078 92 99.0609 92 98V70C92 68.9391 92.4214 67.9217 93.1716 67.1716C93.9217 66.4214 94.9391 66 96 66C97.0609 66 98.0783 66.4214 98.8284 67.1716C99.5786 67.9217 100 68.9391 100 70V98C100 99.0609 99.5786 100.078 98.8284 100.828C98.0783 101.579 97.0609 102 96 102Z" fill="#FF0600"/>
<path d="M4 94C5.06087 94 6.07828 93.5786 6.82843 92.8284C7.57857 92.0783 8 91.0609 8 90V78C8 76.9391 7.57857 75.9217 6.82843 75.1716C6.07828 74.4214 5.06087 74 4 74C2.93913 74 1.92172 74.4214 1.17157 75.1716C0.421427 75.9217 0 76.9391 0 78L0 90C0 91.0609 0.421427 92.0783 1.17157 92.8284C1.92172 93.5786 2.93913 94 4 94Z" fill="#FF0600"/>
<path d="M14 98C15.0609 98 16.0783 97.5786 16.8284 96.8284C17.5786 96.0783 18 95.0609 18 94V74C18 72.9391 17.5786 71.9217 16.8284 71.1716C16.0783 70.4214 15.0609 70 14 70C12.9391 70 11.9217 70.4214 11.1716 71.1716C10.4214 71.9217 10 72.9391 10 74V94C10 95.0609 10.4214 96.0783 11.1716 96.8284C11.9217 97.5786 12.9391 98 14 98Z" fill="#FF0600"/>
<path d="M24 102C25.0609 102 26.0783 101.579 26.8284 100.828C27.5786 100.078 28 99.0609 28 98V70C28 68.9391 27.5786 67.9217 26.8284 67.1716C26.0783 66.4214 25.0609 66 24 66C22.9391 66 21.9217 66.4214 21.1716 67.1716C20.4214 67.9217 20 68.9391 20 70V98C20 99.0609 20.4214 100.078 21.1716 100.828C21.9217 101.579 22.9391 102 24 102Z" fill="#FF0600"/>
</svg>
